<?xml version="1.0" encoding="utf-8" standalone="no"?>
<!DOCTYPE svg PUBLIC "-//W3C//DTD SVG 1.1//EN"
  "http://www.w3.org/Graphics/SVG/1.1/DTD/svg11.dtd">
<!-- Created with matplotlib (https://matplotlib.org/) -->
<svg height="148.4928pt" version="1.1" viewBox="0 0 240.264 148.4928" width="240.264pt" xmlns="http://www.w3.org/2000/svg" xmlns:xlink="http://www.w3.org/1999/xlink">
 <metadata>
  <rdf:RDF xmlns:cc="http://creativecommons.org/ns#" xmlns:dc="http://purl.org/dc/elements/1.1/" xmlns:rdf="http://www.w3.org/1999/02/22-rdf-syntax-ns#">
   <cc:Work>
    <dc:type rdf:resource="http://purl.org/dc/dcmitype/StillImage"/>
    <dc:date>2021-11-04T21:31:20.432071</dc:date>
    <dc:format>image/svg+xml</dc:format>
    <dc:creator>
     <cc:Agent>
      <dc:title>Matplotlib v3.3.4, https://matplotlib.org/</dc:title>
     </cc:Agent>
    </dc:creator>
   </cc:Work>
  </rdf:RDF>
 </metadata>
 <defs>
  <style type="text/css">*{stroke-linecap:butt;stroke-linejoin:round;}</style>
 </defs>
 <g id="figure_1">
  <g id="patch_1">
   <path d="M 0 148.4928 
L 240.264 148.4928 
L 240.264 0 
L 0 0 
z
" style="fill:#ecf4f3;"/>
  </g>
  <g id="axes_1">
   <g id="patch_2">
    <path d="M 26.42904 119.982182 
L 233.05608 119.982182 
L 233.05608 1.484928 
L 26.42904 1.484928 
z
" style="fill:#ecf4f3;"/>
   </g>
   <g id="LineCollection_1">
    <path clip-path="url(#pea0cef05c3)" d="M 29.171877 119.796274 
L 29.171877 118.707333 
" style="fill:none;stroke:#003359;stroke-width:1.5;"/>
    <path clip-path="url(#pea0cef05c3)" d="M 47.457456 119.217662 
L 47.457456 112.916491 
" style="fill:none;stroke:#003359;stroke-width:1.5;"/>
    <path clip-path="url(#pea0cef05c3)" d="M 65.743034 118.517572 
L 65.743034 109.82025 
" style="fill:none;stroke:#003359;stroke-width:1.5;"/>
    <path clip-path="url(#pea0cef05c3)" d="M 84.028613 117.769616 
L 84.028613 103.474888 
" style="fill:none;stroke:#003359;stroke-width:1.5;"/>
    <path clip-path="url(#pea0cef05c3)" d="M 102.314192 117.166563 
L 102.314192 95.833219 
" style="fill:none;stroke:#003359;stroke-width:1.5;"/>
    <path clip-path="url(#pea0cef05c3)" d="M 120.599771 116.391401 
L 120.599771 85.095988 
" style="fill:none;stroke:#003359;stroke-width:1.5;"/>
    <path clip-path="url(#pea0cef05c3)" d="M 138.885349 115.892544 
L 138.885349 74.229435 
" style="fill:none;stroke:#003359;stroke-width:1.5;"/>
    <path clip-path="url(#pea0cef05c3)" d="M 157.170928 115.462517 
L 157.170928 56.66176 
" style="fill:none;stroke:#003359;stroke-width:1.5;"/>
    <path clip-path="url(#pea0cef05c3)" d="M 175.456507 114.692645 
L 175.456507 38.697744 
" style="fill:none;stroke:#003359;stroke-width:1.5;"/>
    <path clip-path="url(#pea0cef05c3)" d="M 193.742086 114.534466 
L 193.742086 15.374238 
" style="fill:none;stroke:#003359;stroke-width:1.5;"/>
    <path clip-path="url(#pea0cef05c3)" d="M 212.027664 113.703214 
L 212.027664 -1 
" style="fill:none;stroke:#003359;stroke-width:1.5;"/>
    <path clip-path="url(#pea0cef05c3)" d="M 230.313243 112.44593 
L 230.313243 -1 
" style="fill:none;stroke:#003359;stroke-width:1.5;"/>
   </g>
   <g id="LineCollection_2">
    <path clip-path="url(#pea0cef05c3)" d="M 26.42904 119.348171 
L 26.42904 119.174857 
" style="fill:none;stroke:#ff7900;stroke-width:1.5;"/>
    <path clip-path="url(#pea0cef05c3)" d="M 44.714619 118.757191 
L 44.714619 118.045262 
" style="fill:none;stroke:#ff7900;stroke-width:1.5;"/>
    <path clip-path="url(#pea0cef05c3)" d="M 63.000198 117.905925 
L 63.000198 116.538777 
" style="fill:none;stroke:#ff7900;stroke-width:1.5;"/>
    <path clip-path="url(#pea0cef05c3)" d="M 81.285776 116.679511 
L 81.285776 114.601455 
" style="fill:none;stroke:#ff7900;stroke-width:1.5;"/>
    <path clip-path="url(#pea0cef05c3)" d="M 99.571355 115.17985 
L 99.571355 112.282244 
" style="fill:none;stroke:#ff7900;stroke-width:1.5;"/>
    <path clip-path="url(#pea0cef05c3)" d="M 117.856934 113.295945 
L 117.856934 109.525073 
" style="fill:none;stroke:#ff7900;stroke-width:1.5;"/>
    <path clip-path="url(#pea0cef05c3)" d="M 136.142513 111.001322 
L 136.142513 106.300235 
" style="fill:none;stroke:#ff7900;stroke-width:1.5;"/>
    <path clip-path="url(#pea0cef05c3)" d="M 154.428091 108.690688 
L 154.428091 102.908593 
" style="fill:none;stroke:#ff7900;stroke-width:1.5;"/>
    <path clip-path="url(#pea0cef05c3)" d="M 172.71367 105.759915 
L 172.71367 98.86294 
" style="fill:none;stroke:#ff7900;stroke-width:1.5;"/>
    <path clip-path="url(#pea0cef05c3)" d="M 190.999249 102.673569 
L 190.999249 94.332751 
" style="fill:none;stroke:#ff7900;stroke-width:1.5;"/>
    <path clip-path="url(#pea0cef05c3)" d="M 209.284828 99.270025 
L 209.284828 89.96638 
" style="fill:none;stroke:#ff7900;stroke-width:1.5;"/>
    <path clip-path="url(#pea0cef05c3)" d="M 227.570406 95.356522 
L 227.570406 84.46 
" style="fill:none;stroke:#ff7900;stroke-width:1.5;"/>
   </g>
   <g id="LineCollection_3">
    <path clip-path="url(#pea0cef05c3)" d="M 31.914714 119.678462 
L 31.914714 119.580325 
" style="fill:none;stroke:#00747a;stroke-width:1.5;"/>
    <path clip-path="url(#pea0cef05c3)" d="M 50.200292 119.372893 
L 50.200292 118.967864 
" style="fill:none;stroke:#00747a;stroke-width:1.5;"/>
    <path clip-path="url(#pea0cef05c3)" d="M 68.485871 118.886545 
L 68.485871 118.156132 
" style="fill:none;stroke:#00747a;stroke-width:1.5;"/>
    <path clip-path="url(#pea0cef05c3)" d="M 86.77145 118.210432 
L 86.77145 117.098737 
" style="fill:none;stroke:#00747a;stroke-width:1.5;"/>
    <path clip-path="url(#pea0cef05c3)" d="M 105.057029 117.371981 
L 105.057029 115.812122 
" style="fill:none;stroke:#00747a;stroke-width:1.5;"/>
    <path clip-path="url(#pea0cef05c3)" d="M 123.342607 116.447884 
L 123.342607 114.40813 
" style="fill:none;stroke:#00747a;stroke-width:1.5;"/>
    <path clip-path="url(#pea0cef05c3)" d="M 141.628186 115.239432 
L 141.628186 112.659901 
" style="fill:none;stroke:#00747a;stroke-width:1.5;"/>
    <path clip-path="url(#pea0cef05c3)" d="M 159.913765 113.967415 
L 159.913765 110.698733 
" style="fill:none;stroke:#00747a;stroke-width:1.5;"/>
    <path clip-path="url(#pea0cef05c3)" d="M 178.199344 112.406395 
L 178.199344 108.449514 
" style="fill:none;stroke:#00747a;stroke-width:1.5;"/>
    <path clip-path="url(#pea0cef05c3)" d="M 196.484922 110.66061 
L 196.484922 105.855969 
" style="fill:none;stroke:#00747a;stroke-width:1.5;"/>
    <path clip-path="url(#pea0cef05c3)" d="M 214.770501 108.869319 
L 214.770501 103.400778 
" style="fill:none;stroke:#00747a;stroke-width:1.5;"/>
    <path clip-path="url(#pea0cef05c3)" d="M 233.05608 106.084381 
L 233.05608 99.378125 
" style="fill:none;stroke:#00747a;stroke-width:1.5;"/>
   </g>
   <g id="line2d_1">
    <defs>
     <path d="M 3 0 
L -3 -0 
" id="m54e723cbd5" style="stroke:#003359;stroke-width:0.5;"/>
    </defs>
    <g clip-path="url(#pea0cef05c3)">
     <use style="fill:#003359;stroke:#003359;stroke-width:0.5;" x="29.171877" xlink:href="#m54e723cbd5" y="119.796274"/>
     <use style="fill:#003359;stroke:#003359;stroke-width:0.5;" x="47.457456" xlink:href="#m54e723cbd5" y="119.217662"/>
     <use style="fill:#003359;stroke:#003359;stroke-width:0.5;" x="65.743034" xlink:href="#m54e723cbd5" y="118.517572"/>
     <use style="fill:#003359;stroke:#003359;stroke-width:0.5;" x="84.028613" xlink:href="#m54e723cbd5" y="117.769616"/>
     <use style="fill:#003359;stroke:#003359;stroke-width:0.5;" x="102.314192" xlink:href="#m54e723cbd5" y="117.166563"/>
     <use style="fill:#003359;stroke:#003359;stroke-width:0.5;" x="120.599771" xlink:href="#m54e723cbd5" y="116.391401"/>
     <use style="fill:#003359;stroke:#003359;stroke-width:0.5;" x="138.885349" xlink:href="#m54e723cbd5" y="115.892544"/>
     <use style="fill:#003359;stroke:#003359;stroke-width:0.5;" x="157.170928" xlink:href="#m54e723cbd5" y="115.462517"/>
     <use style="fill:#003359;stroke:#003359;stroke-width:0.5;" x="175.456507" xlink:href="#m54e723cbd5" y="114.692645"/>
     <use style="fill:#003359;stroke:#003359;stroke-width:0.5;" x="193.742086" xlink:href="#m54e723cbd5" y="114.534466"/>
     <use style="fill:#003359;stroke:#003359;stroke-width:0.5;" x="212.027664" xlink:href="#m54e723cbd5" y="113.703214"/>
     <use style="fill:#003359;stroke:#003359;stroke-width:0.5;" x="230.313243" xlink:href="#m54e723cbd5" y="112.44593"/>
    </g>
   </g>
   <g id="line2d_2">
    <g clip-path="url(#pea0cef05c3)">
     <use style="fill:#003359;stroke:#003359;stroke-width:0.5;" x="29.171877" xlink:href="#m54e723cbd5" y="118.707333"/>
     <use style="fill:#003359;stroke:#003359;stroke-width:0.5;" x="47.457456" xlink:href="#m54e723cbd5" y="112.916491"/>
     <use style="fill:#003359;stroke:#003359;stroke-width:0.5;" x="65.743034" xlink:href="#m54e723cbd5" y="109.82025"/>
     <use style="fill:#003359;stroke:#003359;stroke-width:0.5;" x="84.028613" xlink:href="#m54e723cbd5" y="103.474888"/>
     <use style="fill:#003359;stroke:#003359;stroke-width:0.5;" x="102.314192" xlink:href="#m54e723cbd5" y="95.833219"/>
     <use style="fill:#003359;stroke:#003359;stroke-width:0.5;" x="120.599771" xlink:href="#m54e723cbd5" y="85.095988"/>
     <use style="fill:#003359;stroke:#003359;stroke-width:0.5;" x="138.885349" xlink:href="#m54e723cbd5" y="74.229435"/>
     <use style="fill:#003359;stroke:#003359;stroke-width:0.5;" x="157.170928" xlink:href="#m54e723cbd5" y="56.66176"/>
     <use style="fill:#003359;stroke:#003359;stroke-width:0.5;" x="175.456507" xlink:href="#m54e723cbd5" y="38.697744"/>
     <use style="fill:#003359;stroke:#003359;stroke-width:0.5;" x="193.742086" xlink:href="#m54e723cbd5" y="15.374238"/>
     <use style="fill:#003359;stroke:#003359;stroke-width:0.5;" x="203.699525" xlink:href="#m54e723cbd5" y="-1"/>
    </g>
   </g>
   <g id="line2d_3">
    <defs>
     <path d="M 3 0 
L -3 -0 
" id="m559eabbe17" style="stroke:#ff7900;stroke-width:0.5;"/>
    </defs>
    <g clip-path="url(#pea0cef05c3)">
     <use style="fill:#ff7900;stroke:#ff7900;stroke-width:0.5;" x="26.42904" xlink:href="#m559eabbe17" y="119.348171"/>
     <use style="fill:#ff7900;stroke:#ff7900;stroke-width:0.5;" x="44.714619" xlink:href="#m559eabbe17" y="118.757191"/>
     <use style="fill:#ff7900;stroke:#ff7900;stroke-width:0.5;" x="63.000198" xlink:href="#m559eabbe17" y="117.905925"/>
     <use style="fill:#ff7900;stroke:#ff7900;stroke-width:0.5;" x="81.285776" xlink:href="#m559eabbe17" y="116.679511"/>
     <use style="fill:#ff7900;stroke:#ff7900;stroke-width:0.5;" x="99.571355" xlink:href="#m559eabbe17" y="115.17985"/>
     <use style="fill:#ff7900;stroke:#ff7900;stroke-width:0.5;" x="117.856934" xlink:href="#m559eabbe17" y="113.295945"/>
     <use style="fill:#ff7900;stroke:#ff7900;stroke-width:0.5;" x="136.142513" xlink:href="#m559eabbe17" y="111.001322"/>
     <use style="fill:#ff7900;stroke:#ff7900;stroke-width:0.5;" x="154.428091" xlink:href="#m559eabbe17" y="108.690688"/>
     <use style="fill:#ff7900;stroke:#ff7900;stroke-width:0.5;" x="172.71367" xlink:href="#m559eabbe17" y="105.759915"/>
     <use style="fill:#ff7900;stroke:#ff7900;stroke-width:0.5;" x="190.999249" xlink:href="#m559eabbe17" y="102.673569"/>
     <use style="fill:#ff7900;stroke:#ff7900;stroke-width:0.5;" x="209.284828" xlink:href="#m559eabbe17" y="99.270025"/>
     <use style="fill:#ff7900;stroke:#ff7900;stroke-width:0.5;" x="227.570406" xlink:href="#m559eabbe17" y="95.356522"/>
    </g>
   </g>
   <g id="line2d_4">
    <g clip-path="url(#pea0cef05c3)">
     <use style="fill:#ff7900;stroke:#ff7900;stroke-width:0.5;" x="26.42904" xlink:href="#m559eabbe17" y="119.174857"/>
     <use style="fill:#ff7900;stroke:#ff7900;stroke-width:0.5;" x="44.714619" xlink:href="#m559eabbe17" y="118.045262"/>
     <use style="fill:#ff7900;stroke:#ff7900;stroke-width:0.5;" x="63.000198" xlink:href="#m559eabbe17" y="116.538777"/>
     <use style="fill:#ff7900;stroke:#ff7900;stroke-width:0.5;" x="81.285776" xlink:href="#m559eabbe17" y="114.601455"/>
     <use style="fill:#ff7900;stroke:#ff7900;stroke-width:0.5;" x="99.571355" xlink:href="#m559eabbe17" y="112.282244"/>
     <use style="fill:#ff7900;stroke:#ff7900;stroke-width:0.5;" x="117.856934" xlink:href="#m559eabbe17" y="109.525073"/>
     <use style="fill:#ff7900;stroke:#ff7900;stroke-width:0.5;" x="136.142513" xlink:href="#m559eabbe17" y="106.300235"/>
     <use style="fill:#ff7900;stroke:#ff7900;stroke-width:0.5;" x="154.428091" xlink:href="#m559eabbe17" y="102.908593"/>
     <use style="fill:#ff7900;stroke:#ff7900;stroke-width:0.5;" x="172.71367" xlink:href="#m559eabbe17" y="98.86294"/>
     <use style="fill:#ff7900;stroke:#ff7900;stroke-width:0.5;" x="190.999249" xlink:href="#m559eabbe17" y="94.332751"/>
     <use style="fill:#ff7900;stroke:#ff7900;stroke-width:0.5;" x="209.284828" xlink:href="#m559eabbe17" y="89.96638"/>
     <use style="fill:#ff7900;stroke:#ff7900;stroke-width:0.5;" x="227.570406" xlink:href="#m559eabbe17" y="84.46"/>
    </g>
   </g>
   <g id="line2d_5">
    <defs>
     <path d="M 3 0 
L -3 -0 
" id="mbbe7548a09" style="stroke:#00747a;stroke-width:0.5;"/>
    </defs>
    <g clip-path="url(#pea0cef05c3)">
     <use style="fill:#00747a;stroke:#00747a;stroke-width:0.5;" x="31.914714" xlink:href="#mbbe7548a09" y="119.678462"/>
     <use style="fill:#00747a;stroke:#00747a;stroke-width:0.5;" x="50.200292" xlink:href="#mbbe7548a09" y="119.372893"/>
     <use style="fill:#00747a;stroke:#00747a;stroke-width:0.5;" x="68.485871" xlink:href="#mbbe7548a09" y="118.886545"/>
     <use style="fill:#00747a;stroke:#00747a;stroke-width:0.5;" x="86.77145" xlink:href="#mbbe7548a09" y="118.210432"/>
     <use style="fill:#00747a;stroke:#00747a;stroke-width:0.5;" x="105.057029" xlink:href="#mbbe7548a09" y="117.371981"/>
     <use style="fill:#00747a;stroke:#00747a;stroke-width:0.5;" x="123.342607" xlink:href="#mbbe7548a09" y="116.447884"/>
     <use style="fill:#00747a;stroke:#00747a;stroke-width:0.5;" x="141.628186" xlink:href="#mbbe7548a09" y="115.239432"/>
     <use style="fill:#00747a;stroke:#00747a;stroke-width:0.5;" x="159.913765" xlink:href="#mbbe7548a09" y="113.967415"/>
     <use style="fill:#00747a;stroke:#00747a;stroke-width:0.5;" x="178.199344" xlink:href="#mbbe7548a09" y="112.406395"/>
     <use style="fill:#00747a;stroke:#00747a;stroke-width:0.5;" x="196.484922" xlink:href="#mbbe7548a09" y="110.66061"/>
     <use style="fill:#00747a;stroke:#00747a;stroke-width:0.5;" x="214.770501" xlink:href="#mbbe7548a09" y="108.869319"/>
     <use style="fill:#00747a;stroke:#00747a;stroke-width:0.5;" x="233.05608" xlink:href="#mbbe7548a09" y="106.084381"/>
    </g>
   </g>
   <g id="line2d_6">
    <g clip-path="url(#pea0cef05c3)">
     <use style="fill:#00747a;stroke:#00747a;stroke-width:0.5;" x="31.914714" xlink:href="#mbbe7548a09" y="119.580325"/>
     <use style="fill:#00747a;stroke:#00747a;stroke-width:0.5;" x="50.200292" xlink:href="#mbbe7548a09" y="118.967864"/>
     <use style="fill:#00747a;stroke:#00747a;stroke-width:0.5;" x="68.485871" xlink:href="#mbbe7548a09" y="118.156132"/>
     <use style="fill:#00747a;stroke:#00747a;stroke-width:0.5;" x="86.77145" xlink:href="#mbbe7548a09" y="117.098737"/>
     <use style="fill:#00747a;stroke:#00747a;stroke-width:0.5;" x="105.057029" xlink:href="#mbbe7548a09" y="115.812122"/>
     <use style="fill:#00747a;stroke:#00747a;stroke-width:0.5;" x="123.342607" xlink:href="#mbbe7548a09" y="114.40813"/>
     <use style="fill:#00747a;stroke:#00747a;stroke-width:0.5;" x="141.628186" xlink:href="#mbbe7548a09" y="112.659901"/>
     <use style="fill:#00747a;stroke:#00747a;stroke-width:0.5;" x="159.913765" xlink:href="#mbbe7548a09" y="110.698733"/>
     <use style="fill:#00747a;stroke:#00747a;stroke-width:0.5;" x="178.199344" xlink:href="#mbbe7548a09" y="108.449514"/>
     <use style="fill:#00747a;stroke:#00747a;stroke-width:0.5;" x="196.484922" xlink:href="#mbbe7548a09" y="105.855969"/>
     <use style="fill:#00747a;stroke:#00747a;stroke-width:0.5;" x="214.770501" xlink:href="#mbbe7548a09" y="103.400778"/>
     <use style="fill:#00747a;stroke:#00747a;stroke-width:0.5;" x="233.05608" xlink:href="#mbbe7548a09" y="99.378125"/>
    </g>
   </g>
   <g id="line2d_7">
    <path clip-path="url(#pea0cef05c3)" d="M 29.171877 119.443912 
L 47.457456 117.604036 
L 65.743034 115.417343 
L 84.028613 112.045884 
L 102.314192 108.688504 
L 120.599771 103.59508 
L 138.885349 99.11842 
L 157.170928 92.893541 
L 175.456507 85.537396 
L 193.742086 77.189625 
L 212.027664 68.463454 
L 230.313243 56.260824 
" style="fill:none;stroke:#003359;stroke-linecap:square;stroke-linejoin:miter;stroke-width:1.5;"/>
   </g>
   <g id="line2d_8">
    <path clip-path="url(#pea0cef05c3)" d="M 26.42904 119.266725 
L 44.714619 118.431207 
L 63.000198 117.235618 
L 81.285776 115.639939 
L 99.571355 113.735687 
L 117.856934 111.411296 
L 136.142513 108.64164 
L 154.428091 105.794318 
L 172.71367 102.322002 
L 190.999249 98.505343 
L 209.284828 94.566921 
L 227.570406 89.728934 
" style="fill:none;stroke:#ff7900;stroke-linecap:square;stroke-linejoin:miter;stroke-width:1.5;"/>
   </g>
   <g id="line2d_9">
    <path clip-path="url(#pea0cef05c3)" d="M 31.914714 119.635584 
L 50.200292 119.171158 
L 68.485871 118.517306 
L 86.77145 117.649525 
L 105.057029 116.57808 
L 123.342607 115.408302 
L 141.628186 113.948161 
L 159.913765 112.279394 
L 178.199344 110.357368 
L 196.484922 108.150088 
L 214.770501 106.077214 
L 233.05608 102.604971 
" style="fill:none;stroke:#00747a;stroke-linecap:square;stroke-linejoin:miter;stroke-width:1.5;"/>
   </g>
   <g id="patch_3">
    <path d="M 26.42904 119.982182 
L 26.42904 1.484928 
" style="fill:none;stroke:#000000;stroke-linecap:square;stroke-linejoin:miter;"/>
   </g>
   <g id="patch_4">
    <path d="M 233.05608 119.982182 
L 233.05608 1.484928 
" style="fill:none;stroke:#000000;stroke-linecap:square;stroke-linejoin:miter;"/>
   </g>
   <g id="patch_5">
    <path d="M 26.42904 119.982182 
L 233.05608 119.982182 
" style="fill:none;stroke:#000000;stroke-linecap:square;stroke-linejoin:miter;"/>
   </g>
   <g id="patch_6">
    <path d="M 26.42904 1.484928 
L 233.05608 1.484928 
" style="fill:none;stroke:#000000;stroke-linecap:square;stroke-linejoin:miter;"/>
   </g>
   <g id="matplotlib.axis_1">
    <g id="xtick_1">
     <g id="line2d_10">
      <defs>
       <path d="M 0 0 
L 0 4 
" id="m60ebba0124" style="stroke:#000000;stroke-width:0.5;"/>
      </defs>
      <g>
       <use style="stroke:#000000;stroke-width:0.5;" x="65.743034" xlink:href="#m60ebba0124" y="119.982182"/>
      </g>
     </g>
     <g id="text_1">
      <!-- $\mathdefault{5}$ -->
      <g transform="translate(63.658353 134.269852)scale(0.09 -0.09)">
       <defs>
        <path d="M 31.90625 18.890625 
C 31.90625 9.453125 26.90625 2.5 20.90625 2.5 
C 17.09375 2.5 15.796875 4.96875 14.296875 6.96875 
C 13 8.65625 11.296875 10.140625 9.203125 10.140625 
C 7.296875 10.140625 5.40625 8.453125 5.40625 6.46875 
C 5.40625 2.390625 13.90625 -1 19.59375 -1 
C 32 -1 40.796875 8.15625 40.796875 20.671875 
C 40.796875 30.3125 34.09375 39 22.90625 39 
C 18.59375 39 14.90625 38.09375 13.09375 37.390625 
L 15.09375 54.1875 
C 18.796875 53.796875 22 53.296875 26.796875 53.296875 
C 29.796875 53.1875 33.203125 53.390625 37.296875 53.796875 
L 38.90625 60.59375 
L 38.203125 61 
C 32.5 60.5 27.09375 60 21.796875 60 
C 18.09375 60 14.5 60.1875 11 60.5 
L 7.59375 31.609375 
C 12.90625 33.59375 16.703125 34 20.296875 34 
C 26.796875 34 31.90625 29.71875 31.90625 18.890625 
z
" id="Linux_Libertine_T-53"/>
       </defs>
       <use transform="scale(0.996264)" xlink:href="#Linux_Libertine_T-53"/>
      </g>
     </g>
    </g>
    <g id="xtick_2">
     <g id="line2d_11">
      <g>
       <use style="stroke:#000000;stroke-width:0.5;" x="111.456981" xlink:href="#m60ebba0124" y="119.982182"/>
      </g>
     </g>
     <g id="text_2">
      <!-- $\mathdefault{10}$ -->
      <g transform="translate(107.287619 134.269852)scale(0.09 -0.09)">
       <defs>
        <path d="M 28.796875 12.390625 
L 28.796875 47.09375 
C 28.796875 53.09375 28.90625 59.203125 29.09375 60.5 
C 29.09375 61 28.90625 61 28.5 61 
C 23 57.59375 17.703125 55.09375 8.90625 51 
C 9.09375 49.890625 9.5 48.890625 10.40625 48.296875 
C 15 50.1875 17.203125 50.796875 19.09375 50.796875 
C 20.796875 50.796875 21.09375 48.390625 21.09375 45 
L 21.09375 12.390625 
C 21.09375 4.09375 18.40625 3.59375 11.40625 3.296875 
C 10.796875 2.6875 10.796875 0.59375 11.40625 0 
C 16.296875 0.09375 19.90625 0.1875 25.296875 0.1875 
C 30.09375 0.1875 32.5 0.09375 37.5 0 
C 38.09375 0.59375 38.09375 2.6875 37.5 3.296875 
C 30.5 3.59375 28.796875 4.09375 28.796875 12.390625 
z
" id="Linux_Libertine_T-49"/>
        <path d="M 23.203125 57.484375 
C 24.90625 57.484375 26.5 56.890625 27.703125 55.796875 
C 30.796875 53.203125 33.5 45.59375 33.5 32.1875 
C 33.5 23 33.203125 16.6875 31.796875 11.59375 
C 29.59375 3.390625 24.703125 2.5 22.90625 2.5 
C 13.59375 2.5 12.59375 19.59375 12.59375 28.296875 
C 12.59375 52.890625 18.703125 57.484375 23.203125 57.484375 
z
M 22.796875 -1 
C 30.5 -1 42.203125 6.796875 42.203125 30.296875 
C 42.203125 40.1875 39.796875 48.6875 35.40625 54.5 
C 32.796875 57.984375 28.59375 61 23.203125 61 
C 13.296875 61 3.90625 49.1875 3.90625 29.390625 
C 3.90625 18.6875 7.203125 8.6875 12.703125 3.1875 
C 15.5 0.390625 18.90625 -1 22.796875 -1 
z
" id="Linux_Libertine_T-48"/>
       </defs>
       <use transform="scale(0.996264)" xlink:href="#Linux_Libertine_T-49"/>
       <use transform="translate(46.326292 0)scale(0.996264)" xlink:href="#Linux_Libertine_T-48"/>
      </g>
     </g>
    </g>
    <g id="xtick_3">
     <g id="line2d_12">
      <g>
       <use style="stroke:#000000;stroke-width:0.5;" x="157.170928" xlink:href="#m60ebba0124" y="119.982182"/>
      </g>
     </g>
     <g id="text_3">
      <!-- $\mathdefault{15}$ -->
      <g transform="translate(153.001566 134.269852)scale(0.09 -0.09)">
       <use transform="scale(0.996264)" xlink:href="#Linux_Libertine_T-49"/>
       <use transform="translate(46.326292 0)scale(0.996264)" xlink:href="#Linux_Libertine_T-53"/>
      </g>
     </g>
    </g>
    <g id="xtick_4">
     <g id="line2d_13">
      <g>
       <use style="stroke:#000000;stroke-width:0.5;" x="202.884875" xlink:href="#m60ebba0124" y="119.982182"/>
      </g>
     </g>
     <g id="text_4">
      <!-- $\mathdefault{20}$ -->
      <g transform="translate(198.715513 134.269852)scale(0.09 -0.09)">
       <defs>
        <path d="M 6.09375 46.859375 
C 6.09375 44.78125 8 43 10.09375 43 
C 11.796875 43 14.796875 44.78125 14.796875 46.96875 
C 14.796875 47.765625 14.59375 48.359375 14.40625 49.046875 
C 14.203125 49.75 13.59375 50.640625 13.59375 51.4375 
C 13.59375 53.921875 16.203125 57.484375 23.5 57.484375 
C 27.09375 57.484375 32.203125 55.015625 32.203125 45.46875 
C 32.203125 39.078125 29.90625 33.875 24 27.859375 
L 16.59375 20.53125 
C 6.796875 10.5 5.203125 5.6875 5.203125 -0.203125 
C 5.203125 -0.203125 10.296875 0 13.5 0 
L 31 0 
C 34.203125 0 38.796875 -0.203125 38.796875 -0.203125 
C 40.09375 5.09375 41.09375 12.609375 41.203125 15.625 
C 40.59375 16.125 39.296875 16.3125 38.296875 16.125 
C 36.59375 9 34.90625 6.5 31.296875 6.5 
L 13.5 6.5 
C 13.5 11.3125 20.40625 18.125 20.90625 18.625 
L 31 28.359375 
C 36.703125 33.875 41 38.28125 41 45.875 
C 41 56.59375 32.203125 61 24.09375 61 
C 13 61 6.09375 52.828125 6.09375 46.859375 
z
" id="Linux_Libertine_T-50"/>
       </defs>
       <use transform="scale(0.996264)" xlink:href="#Linux_Libertine_T-50"/>
       <use transform="translate(46.326292 0)scale(0.996264)" xlink:href="#Linux_Libertine_T-48"/>
      </g>
     </g>
    </g>
    <g id="text_5">
     <!-- \#\,Stages -->
     <g transform="translate(115.276666 145.601828)scale(0.09 -0.09)">
      <defs>
       <path d="M 27.90625 24.296875 
L 16.5 24.296875 
L 18.40625 36 
L 29.703125 36 
z
M 33.5 36 
L 43 36 
L 43.796875 41.296875 
L 34.203125 41.296875 
L 37.09375 59.1875 
L 33.296875 59.1875 
L 30.5 41.296875 
L 19.09375 41.296875 
L 22.09375 59.1875 
L 18.296875 59.1875 
L 15.40625 41.296875 
L 6.09375 41.296875 
L 5.296875 36 
L 14.59375 36 
L 12.796875 24.296875 
L 3.40625 24.296875 
L 2.59375 19 
L 11.90625 19 
L 9.09375 1.1875 
L 12.796875 1.1875 
L 15.703125 19 
L 26.90625 19 
L 24.203125 1.1875 
L 28 1.1875 
L 31 19 
L 40.40625 19 
L 41.09375 24.296875 
L 31.59375 24.296875 
z
" id="Linux_Libertine_T-35"/>
       <path d="M 39.5 63.296875 
C 33.703125 64.09375 33.90625 66 24.09375 66 
C 14 66 5.09375 59.28125 5.09375 48.640625 
C 5.09375 38.109375 13.796875 33.296875 22.59375 29.875 
C 28.59375 27.578125 36 24.765625 36 14.9375 
C 36 6.8125 31.5 2.59375 23.5 2.59375 
C 14.203125 2.59375 8.203125 6.90625 6 16.84375 
C 4.703125 17.234375 3.703125 17.046875 2.703125 16.53125 
C 3.09375 8.8125 3.5 6.203125 4.703125 1.296875 
C 11 1.296875 13.796875 -1 22.703125 -1 
C 27.203125 -1 31.5 0.09375 35 2.296875 
C 40.796875 5.90625 44.40625 12.015625 44.40625 18.4375 
C 44.40625 29.078125 36.40625 33.796875 28.203125 36.90625 
C 22.203125 39.109375 12.203125 42.921875 12.203125 51.34375 
C 12.203125 56.96875 17.296875 62.59375 23.203125 62.59375 
C 32.90625 62.59375 36 56.375 38 49.75 
C 39.09375 49.546875 40.40625 49.640625 41.296875 50.34375 
C 40.90625 55.15625 40.5 57.96875 39.5 63.296875 
z
" id="Linux_Libertine_T-83"/>
       <path d="M 4.296875 43 
C 2.90625 43 2.5 41.796875 2.5 40.984375 
L 2.5 39.6875 
C 2.5 39.1875 2.59375 39.09375 3 39.09375 
L 8.90625 39.09375 
L 8.90625 8.90625 
C 8.90625 1.796875 12 -1 16.59375 -1 
C 21.203125 -1 26.203125 1.1875 30.09375 5.59375 
C 29.90625 6.59375 29.296875 7.203125 28.296875 7.296875 
C 25.703125 5.296875 22.703125 4.5 20.09375 4.5 
C 17.40625 4.5 16.796875 7.5 16.796875 13.71875 
L 16.796875 39.09375 
L 27.203125 39.09375 
C 28.203125 39.09375 29.59375 39.484375 29.59375 40.390625 
L 29.59375 42.390625 
C 29.59375 42.796875 29.296875 43 28.796875 43 
L 16.796875 43 
L 16.796875 46.890625 
C 16.796875 53.390625 17.203125 57.390625 17.203125 57.390625 
C 17.203125 58 16.90625 58.296875 16.40625 58.296875 
C 16 58.296875 15.09375 57.890625 14.203125 57.390625 
C 13.09375 56.796875 12.09375 56.296875 10.796875 56 
C 9.59375 55.59375 8.59375 55.296875 8.59375 54.59375 
C 8.59375 53.390625 8.90625 54.09375 8.90625 43 
z
" id="Linux_Libertine_T-116"/>
       <path d="M 29.296875 23.34375 
L 29.296875 10.109375 
C 29.296875 8.8125 28.703125 8.109375 27.90625 7.5 
C 25.296875 5.40625 21.90625 3.09375 19.09375 3.09375 
C 14.09375 3.09375 11.90625 7.109375 11.90625 10.21875 
C 11.90625 14.71875 14 19.328125 21.40625 21.234375 
z
M 29.296875 4.796875 
C 29.90625 1.6875 31 -1 36 -1 
C 39.796875 -1 43.40625 0.6875 45.5 2.6875 
C 45.296875 3.890625 44.90625 4.796875 43.796875 5.390625 
C 43.09375 4.796875 41.40625 3.796875 40.09375 3.796875 
C 37.203125 3.796875 37.09375 7.703125 37.09375 12.3125 
L 37.09375 27.046875 
C 37.09375 41.296875 29.296875 44 22 44 
C 13.796875 44 5.5 38.578125 5.5 32.875 
C 5.5 30.46875 6.703125 29.265625 9 29.265625 
C 11.90625 29.265625 13.703125 31.359375 13.703125 32.671875 
C 13.703125 33.375 13.59375 34.078125 13.40625 34.46875 
C 13.296875 34.78125 13.203125 35.375 13.203125 36.484375 
C 13.203125 39.59375 17.40625 40.6875 21.203125 40.6875 
C 24.59375 40.6875 29.296875 38.984375 29.296875 27.65625 
C 29.296875 26.953125 29 26.546875 28.703125 26.453125 
L 20.09375 24.34375 
C 10.5 21.9375 3.59375 16.625 3.59375 9.8125 
C 3.59375 1.59375 9.203125 -1 16.203125 -1 
C 19.703125 -1 22.703125 -0.203125 27.09375 3.1875 
L 29.09375 4.796875 
z
" id="Linux_Libertine_T-97"/>
       <path d="M 31.90625 28.09375 
C 31.90625 18.875 27.203125 17 23.5 17 
C 15.09375 17 14.203125 24.03125 14.203125 30.375 
C 14.203125 37.328125 16.703125 40.890625 22.203125 40.890625 
C 28.5 40.890625 31.90625 36.328125 31.90625 28.09375 
z
M 13.203125 -0.8125 
C 14.296875 -1.109375 15.90625 -1.3125 17.203125 -1.3125 
C 20.296875 -1.3125 23.09375 -1 24.5 -1 
C 29.5 -1 33.703125 -1.109375 36.59375 -2.75 
C 40.5 -4.984375 41.703125 -6.421875 41.703125 -9.078125 
C 41.703125 -16.421875 31.09375 -20.3125 22.09375 -20.3125 
C 18.5 -20.3125 10.09375 -17.34375 10.09375 -10.40625 
C 10.09375 -6.9375 10.296875 -4.375 13.203125 -0.8125 
z
M 44.40625 38.8125 
C 46.296875 38.8125 48.09375 40.59375 48.09375 42.59375 
C 48.09375 44.6875 46.203125 46.296875 43.5 46.296875 
C 40.90625 46.296875 36.09375 44.59375 33.5 41.1875 
C 32.296875 41.984375 29 44 23.09375 44 
C 14.203125 44 6 38.015625 6 28.890625 
C 6 23.53125 8.40625 20.46875 11.203125 17.78125 
C 8.40625 15.390625 6.796875 11.0625 6.796875 7.625 
C 6.796875 4 8.796875 1.1875 11.40625 -0.109375 
C 6 -3.359375 3.203125 -8.046875 3.203125 -12.4375 
C 3.203125 -21.3125 11.40625 -24 19.09375 -24 
C 32.59375 -24 47.203125 -17.453125 47.203125 -6.421875 
C 47.203125 -3.15625 45.703125 -0.609375 42.796875 1.796875 
C 38.90625 5 31.90625 5.09375 28.203125 5.09375 
C 26.40625 5.09375 23.90625 4.890625 21.5 4.59375 
C 20 4.5 19 4.390625 18.5 4.390625 
C 15.59375 4.390625 12.09375 5.796875 12.09375 10.15625 
C 12.09375 12.171875 12.703125 14.296875 13.90625 15.984375 
C 16.296875 14.59375 19.09375 13.890625 23 13.890625 
C 31.796875 13.890625 39.90625 19.375 39.90625 29.09375 
C 39.90625 33.75 38.5 36.421875 35.59375 39.40625 
C 36.296875 40.390625 38.296875 41.796875 39.59375 41.796875 
C 40.296875 41.796875 41 41.484375 41.59375 40.59375 
C 42 39.796875 43.296875 38.8125 44.40625 38.8125 
z
" id="Linux_Libertine_T-103"/>
       <path d="M 12.40625 28.390625 
C 14.296875 39.78125 21.296875 40.6875 23.703125 40.6875 
C 27.5 40.6875 32 38.578125 32 30.109375 
C 32 29.203125 31.59375 28.6875 30.5 28.6875 
z
M 38.59375 9.34375 
C 34.90625 5.5 32 3.890625 26.203125 3.890625 
C 22.59375 3.890625 18.40625 6.015625 15.296875 11.15625 
C 13.296875 14.5 12.09375 19.140625 12.09375 25 
L 38.703125 24.796875 
C 39.90625 24.796875 40.59375 25.390625 40.59375 26.5 
C 40.59375 34.953125 37.59375 44 23.703125 44 
C 15 44 3.703125 35.65625 3.703125 20.34375 
C 3.703125 14.6875 5.09375 9.25 8.40625 5.40625 
C 11.796875 1.390625 16.5 -1 23.703125 -1 
C 31.296875 -1 36.703125 2.5 40.703125 7.734375 
C 40.40625 8.734375 39.796875 9.25 38.59375 9.34375 
z
" id="Linux_Libertine_T-101"/>
       <path d="M 4.796875 13.828125 
C 5.203125 8.90625 5.5 4.203125 5.5 0 
C 6.5 0.1875 7.5 0.296875 8 0.296875 
C 8.703125 0.296875 9.296875 0.296875 10 0.09375 
C 12.703125 -0.609375 15.40625 -1 19.09375 -1 
C 24.703125 -1 35 1.6875 35 11.609375 
C 35 18.4375 30.09375 22.453125 23.296875 24.953125 
C 17.296875 27.265625 13.296875 28.765625 13.296875 34.28125 
C 13.296875 38.390625 16.90625 40.6875 20.296875 40.6875 
C 22.5 40.6875 28.296875 39.890625 29.59375 31.375 
C 30.203125 30.765625 32.203125 30.875 32.796875 31.46875 
C 33.09375 35.078125 33.296875 38.78125 33.40625 42.09375 
C 30.296875 42.59375 25.5 44 20.296875 44 
C 12.90625 44 6.203125 39.1875 6.203125 32.765625 
C 6.203125 25.453125 9.5 22.34375 17.203125 19.140625 
C 25.5 15.734375 27.40625 13.625 27.40625 9.3125 
C 27.40625 4.390625 22.59375 2.296875 18.90625 2.296875 
C 15 2.296875 12.796875 3.59375 11.796875 4.703125 
C 9.59375 7 8.5 11.421875 7.90625 13.921875 
C 7.296875 14.53125 5.40625 14.421875 4.796875 13.828125 
z
" id="Linux_Libertine_T-115"/>
      </defs>
      <use transform="scale(0.996264)" xlink:href="#Linux_Libertine_T-35"/>
      <use transform="translate(62.934239 0)scale(0.996264)" xlink:href="#Linux_Libertine_T-83"/>
      <use transform="translate(111.252998 0)scale(0.996264)" xlink:href="#Linux_Libertine_T-116"/>
      <use transform="translate(142.734931 0)scale(0.996264)" xlink:href="#Linux_Libertine_T-97"/>
      <use transform="translate(188.264163 0)scale(0.996264)" xlink:href="#Linux_Libertine_T-103"/>
      <use transform="translate(238.077364 0)scale(0.996264)" xlink:href="#Linux_Libertine_T-101"/>
      <use transform="translate(282.610316 0)scale(0.996264)" xlink:href="#Linux_Libertine_T-115"/>
     </g>
    </g>
   </g>
   <g id="matplotlib.axis_2">
    <g id="ytick_1">
     <g id="line2d_14">
      <defs>
       <path d="M 0 0 
L -4 0 
" id="m043e96ee04" style="stroke:#000000;stroke-width:0.5;"/>
      </defs>
      <g>
       <use style="stroke:#000000;stroke-width:0.5;" x="26.42904" xlink:href="#m043e96ee04" y="119.982182"/>
      </g>
     </g>
     <g id="text_6">
      <!-- $\mathdefault{0}$ -->
      <g transform="translate(18.339889 122.066864)rotate(-90)scale(0.09 -0.09)">
       <use transform="scale(0.996264)" xlink:href="#Linux_Libertine_T-48"/>
      </g>
     </g>
    </g>
    <g id="ytick_2">
     <g id="line2d_15">
      <g>
       <use style="stroke:#000000;stroke-width:0.5;" x="26.42904" xlink:href="#m043e96ee04" y="96.043343"/>
      </g>
     </g>
     <g id="text_7">
      <!-- $\mathdefault{20}$ -->
      <g transform="translate(18.339889 100.212706)rotate(-90)scale(0.09 -0.09)">
       <use transform="scale(0.996264)" xlink:href="#Linux_Libertine_T-50"/>
       <use transform="translate(46.326292 0)scale(0.996264)" xlink:href="#Linux_Libertine_T-48"/>
      </g>
     </g>
    </g>
    <g id="ytick_3">
     <g id="line2d_16">
      <g>
       <use style="stroke:#000000;stroke-width:0.5;" x="26.42904" xlink:href="#m043e96ee04" y="72.104504"/>
      </g>
     </g>
     <g id="text_8">
      <!-- $\mathdefault{40}$ -->
      <g transform="translate(18.339889 76.273866)rotate(-90)scale(0.09 -0.09)">
       <defs>
        <path d="M 27.09375 50.71875 
L 27.09375 22 
L 8 22 
C 13.09375 30.171875 20.203125 41.34375 27.09375 50.71875 
z
M 43 22 
L 34.703125 22 
L 34.703125 51.125 
C 34.703125 56.109375 34.703125 60 34.90625 60.796875 
L 34.703125 61 
L 31.5 61 
C 30.796875 61 30.296875 60.390625 29.90625 59.890625 
C 23.59375 52.21875 12 35.75 2.796875 21.484375 
C 3.09375 19.984375 3.703125 17.296875 6.703125 17.296875 
L 27.09375 17.296875 
L 27.09375 8.15625 
C 27.09375 3.59375 23.296875 3.59375 19 3.296875 
C 18.40625 2.6875 18.40625 0.59375 19 0 
C 22.203125 0.09375 26.203125 0.1875 30.796875 0.1875 
C 34.703125 0.1875 38.5 0.09375 41.703125 0 
C 42.296875 0.59375 42.296875 2.6875 41.703125 3.296875 
C 36.796875 3.6875 34.703125 3.484375 34.703125 8.15625 
L 34.703125 17.296875 
L 41.59375 17.296875 
C 43 17.296875 44.5 19.1875 44.5 20.390625 
C 44.5 21.390625 44.09375 22 43 22 
z
" id="Linux_Libertine_T-52"/>
       </defs>
       <use transform="scale(0.996264)" xlink:href="#Linux_Libertine_T-52"/>
       <use transform="translate(46.326292 0)scale(0.996264)" xlink:href="#Linux_Libertine_T-48"/>
      </g>
     </g>
    </g>
    <g id="ytick_4">
     <g id="line2d_17">
      <g>
       <use style="stroke:#000000;stroke-width:0.5;" x="26.42904" xlink:href="#m043e96ee04" y="48.165665"/>
      </g>
     </g>
     <g id="text_9">
      <!-- $\mathdefault{60}$ -->
      <g transform="translate(18.339889 52.335027)rotate(-90)scale(0.09 -0.09)">
       <defs>
        <path d="M 13.5 30.703125 
C 16.796875 32.890625 20.09375 33 21.796875 33 
C 31.59375 33 33.796875 23.421875 33.796875 18.4375 
C 33.796875 7.46875 29.59375 2.5 24.703125 2.5 
C 18.40625 2.5 12.703125 5.875 12.703125 22.921875 
C 12.703125 25.21875 12.90625 27.8125 13.5 30.703125 
z
M 14.40625 34.296875 
C 17.09375 43.359375 23.5 53.421875 36.796875 58.390625 
C 36.796875 59.59375 36.40625 60.484375 35.59375 61 
C 25.5 58 19.296875 53.8125 13.703125 47.34375 
C 7.5 40.171875 4.40625 31.09375 4.40625 23.21875 
C 4.40625 2.984375 15.90625 -1 23.59375 -1 
C 36.703125 -1 42.09375 11.65625 42.09375 20.234375 
C 42.09375 28.8125 37.5 36.5 23.90625 36.5 
C 21.296875 36.5 17.40625 35.6875 14.40625 34.296875 
z
" id="Linux_Libertine_T-54"/>
       </defs>
       <use transform="scale(0.996264)" xlink:href="#Linux_Libertine_T-54"/>
       <use transform="translate(46.326292 0)scale(0.996264)" xlink:href="#Linux_Libertine_T-48"/>
      </g>
     </g>
    </g>
    <g id="ytick_5">
     <g id="line2d_18">
      <g>
       <use style="stroke:#000000;stroke-width:0.5;" x="26.42904" xlink:href="#m043e96ee04" y="24.226825"/>
      </g>
     </g>
     <g id="text_10">
      <!-- $\mathdefault{80}$ -->
      <g transform="translate(18.339889 28.396188)rotate(-90)scale(0.09 -0.09)">
       <defs>
        <path d="M 23.40625 57.484375 
C 29.90625 57.484375 32.296875 53.203125 32.296875 48.59375 
C 32.296875 43.1875 27 38.6875 24.296875 36.6875 
L 21.203125 38.59375 
C 14.90625 42.6875 14.203125 46 14.203125 49.09375 
C 14.203125 53.703125 17.40625 57.484375 23.40625 57.484375 
z
M 39.296875 48.5 
C 39.296875 55.703125 33.703125 61 23.90625 61 
C 13.703125 61 7.09375 54.890625 7.09375 47.1875 
C 7.09375 41.59375 9.796875 37.5 15.90625 33.6875 
L 18.5 32.09375 
C 15.59375 30.59375 12.90625 28.796875 10.40625 26.59375 
C 6.296875 23 4.59375 18.5 4.59375 14.59375 
C 4.59375 4.390625 11.796875 -1 22.40625 -1 
C 35.5 -1 41.90625 8.59375 41.90625 16.1875 
C 41.90625 22 39.40625 27.09375 34.09375 30.296875 
L 27 34.59375 
C 31.703125 36.890625 39.296875 42.09375 39.296875 48.5 
z
M 22.59375 2.5 
C 18.09375 2.5 11.296875 5.59375 11.296875 14.59375 
C 11.296875 17.59375 12.59375 24.59375 21.203125 30.296875 
L 25.90625 27.5 
C 32.09375 23.6875 34.59375 19 34.59375 14.1875 
C 34.59375 4.1875 27.09375 2.5 22.59375 2.5 
z
" id="Linux_Libertine_T-56"/>
       </defs>
       <use transform="scale(0.996264)" xlink:href="#Linux_Libertine_T-56"/>
       <use transform="translate(46.326292 0)scale(0.996264)" xlink:href="#Linux_Libertine_T-48"/>
      </g>
     </g>
    </g>
    <g id="text_11">
     <!-- Latency (in ms) -->
     <g transform="translate(6.963069 89.076222)rotate(-90)scale(0.09 -0.09)">
      <defs>
       <path d="M 14.90625 0 
L 36.203125 0 
C 38.90625 0.1875 48.09375 0 48.09375 0 
C 49.09375 5 50.09375 11.5 50.703125 16.71875 
C 49.703125 17.21875 48.59375 17.421875 47.40625 17.21875 
C 45.40625 9.828125 41.703125 3.890625 31.09375 3.890625 
L 24.796875 3.890625 
C 20.90625 3.890625 19.09375 5.796875 19.09375 10.921875 
L 19.09375 52.546875 
C 19.09375 60.890625 20.796875 61.390625 27.796875 61.6875 
C 28.40625 62.296875 28.40625 64.390625 27.796875 65 
C 23.296875 64.890625 18.59375 64.796875 14.796875 64.796875 
C 11.203125 64.796875 6.5 64.890625 1.90625 65 
C 1.296875 64.390625 1.296875 62.296875 1.90625 61.6875 
C 8.90625 61.390625 10.59375 60.890625 10.59375 52.546875 
L 10.59375 12.234375 
C 10.59375 4.09375 8.90625 3.59375 1.90625 3.296875 
C 1.296875 2.6875 1.296875 0.59375 1.90625 0 
C 5.796875 -0.109375 11.5 0 14.90625 0 
z
" id="Linux_Libertine_T-76"/>
       <path d="M 18.40625 35.90625 
C 17.796875 35.203125 17.203125 35 17.203125 35.90625 
C 17.09375 38.59375 16.90625 42.484375 16.40625 43.484375 
C 16.203125 44 16 44.296875 15.203125 44.296875 
C 12.40625 43.1875 9.796875 42.296875 2.90625 41.390625 
C 2.703125 40.796875 2.90625 39.1875 3.09375 38.59375 
C 8.5 38.09375 9.59375 37.59375 9.59375 31.8125 
L 9.59375 12.359375 
C 9.59375 4.1875 8.59375 3.796875 2.59375 3.296875 
C 2 2.6875 2 0.59375 2.59375 0 
C 5.59375 0.09375 9.59375 0.1875 13.59375 0.1875 
C 17.59375 0.1875 20.59375 0.09375 23.59375 0 
C 24.203125 0.59375 24.203125 2.6875 23.59375 3.296875 
C 18.5 3.796875 17.5 4.1875 17.5 12.359375 
L 17.5 28.71875 
C 17.5 30.8125 18.40625 32.015625 19.203125 32.90625 
C 23 36.59375 27.5 38.796875 31.40625 38.796875 
C 33.40625 38.796875 35.5 37.5 36.703125 35.203125 
C 37.703125 33.203125 37.90625 30.515625 37.90625 27.515625 
L 37.90625 12.359375 
C 37.90625 4.1875 36.90625 3.796875 31.703125 3.296875 
C 31.203125 2.6875 31.203125 0.59375 31.703125 0 
C 34.703125 0.09375 37.90625 0.1875 41.90625 0.1875 
C 45.90625 0.1875 49.5 0.09375 52.5 0 
C 53 0.59375 53 2.6875 52.5 3.296875 
C 46.90625 3.796875 45.796875 4.1875 45.796875 12.359375 
L 45.796875 27.21875 
C 45.796875 32.703125 45.40625 37.5 43.09375 40.59375 
C 41.40625 42.796875 38.296875 44 34.796875 44 
C 29.90625 44 24.296875 42.6875 18.40625 35.90625 
z
" id="Linux_Libertine_T-110"/>
       <path d="M 39.796875 9.109375 
C 39.40625 10.015625 38.59375 10.40625 37.703125 10.515625 
C 34.296875 6.09375 30 3.890625 25.703125 3.890625 
C 18.40625 3.890625 12.296875 11.3125 12.296875 23.046875 
C 12.296875 34.078125 17.09375 40.6875 23.703125 40.6875 
C 29.59375 40.6875 30.40625 37.1875 30.796875 33.671875 
C 31.09375 30.96875 32.5 30.0625 34.59375 30.0625 
C 36.703125 30.0625 39.5 31.359375 39.5 34.46875 
C 39.5 39.984375 33.796875 44 24.203125 44 
C 14.296875 44 3.703125 35.078125 3.703125 20.84375 
C 3.703125 7.90625 10.90625 -1 23.5 -1 
C 29.5 -1 34.796875 0.890625 39.796875 9.109375 
z
" id="Linux_Libertine_T-99"/>
       <path d="M 20.40625 -15.8125 
C 22 -13.015625 23.296875 -10.234375 24.5 -7.25 
C 32.5 11.953125 37 22.1875 42.203125 33.328125 
C 44.203125 37.5 45.59375 39.09375 50.296875 39.6875 
C 50.90625 40.296875 50.90625 42.390625 50.296875 43 
C 48.296875 42.890625 46 42.796875 43.203125 42.796875 
C 40.203125 42.796875 37.09375 42.890625 34.09375 43 
C 33.5 42.390625 33.5 40.296875 34.09375 39.6875 
C 37.296875 39.390625 40.5 38.796875 38.90625 35.21875 
L 29 12.4375 
C 28.296875 10.84375 27.40625 10.546875 26.59375 12.546875 
L 17.703125 33.234375 
C 15.90625 37.40625 15.40625 39.296875 21 39.6875 
C 21.59375 40.296875 21.59375 42.390625 21 43 
C 17.296875 42.890625 13.296875 42.796875 9.703125 42.796875 
C 6.296875 42.796875 3.59375 42.890625 1.59375 43 
C 1 42.390625 1 40.296875 1.59375 39.6875 
C 5.59375 39.203125 6.90625 38.296875 9.5 32.234375 
L 20.796875 6.078125 
C 21.703125 4.09375 23.203125 -0.484375 22.203125 -3.265625 
C 21 -6.546875 19.796875 -9.34375 18.296875 -12.421875 
C 17.203125 -14.40625 15.796875 -15.3125 13.296875 -15.3125 
C 11.90625 -15.3125 11.5 -15 10.40625 -15 
C 7.5 -15 6 -18 6 -19.3125 
C 6 -21.40625 8 -23 10.703125 -23 
C 12.796875 -23 16.796875 -22.203125 20.40625 -15.8125 
z
" id="Linux_Libertine_T-121"/>
       <path d="M 4.40625 25.1875 
C 4.40625 20.6875 4.796875 -2.40625 25.59375 -20.40625 
C 26.59375 -20.203125 27.40625 -19.515625 27.703125 -18.703125 
C 24.40625 -14.90625 12.703125 -1.109375 12.703125 25.1875 
C 12.703125 51.5 24.5 65.296875 27.703125 68.890625 
C 27.40625 69.890625 26.703125 70.59375 25.59375 70.703125 
C 13.703125 60.5 4.40625 43.796875 4.40625 25.1875 
z
" id="Linux_Libertine_T-40"/>
       <path d="M 9 60.1875 
C 9 57.59375 11.40625 54.984375 13.796875 54.984375 
C 16.59375 54.984375 19 57.6875 19 59.796875 
C 19 62.1875 16.90625 65 14.203125 65 
C 11.796875 65 9 62.59375 9 60.1875 
z
M 18.09375 12.265625 
L 18.09375 31.875 
C 18.09375 36.8125 18.5 43.265625 18.5 43.265625 
C 18.5 43.6875 18 44 17.203125 44 
C 14.40625 42.859375 10.40625 41.921875 3.5 41 
C 3.296875 40.390625 3.5 38.796875 3.703125 38.1875 
C 9.203125 37.703125 10.203125 37.109375 10.203125 31.484375 
L 10.203125 12.265625 
C 10.203125 4.078125 9.09375 3.78125 3 3.296875 
C 2.40625 2.6875 2.40625 0.59375 3 0 
C 6.296875 0.09375 10.203125 0.1875 14.203125 0.1875 
C 18.203125 0.1875 22 0.09375 25.296875 0 
C 25.90625 0.59375 25.90625 2.6875 25.296875 3.296875 
C 19.203125 3.6875 18.09375 4.078125 18.09375 12.265625 
z
" id="Linux_Libertine_T-105"/>
       <path d="M 17 35.90625 
C 16.90625 38.890625 16.703125 42.484375 16.203125 43.484375 
C 16 44 15.796875 44.296875 15 44.296875 
C 12.203125 43.1875 9.59375 42.296875 2.703125 41.390625 
C 2.5 40.796875 2.703125 39.1875 2.90625 38.59375 
C 8.296875 38.09375 9.40625 37.59375 9.40625 31.8125 
L 9.40625 12.359375 
C 9.40625 4.1875 8.09375 3.6875 2.59375 3.296875 
C 2 2.6875 2 0.59375 2.59375 0 
C 5.59375 0.09375 9.40625 0.1875 13.40625 0.1875 
C 17.40625 0.1875 20.5 0.09375 23.5 0 
C 24.09375 0.59375 24.09375 2.6875 23.5 3.296875 
C 18.40625 3.796875 17.296875 4.1875 17.296875 12.359375 
L 17.296875 28.71875 
C 17.296875 30.8125 18.203125 32.015625 19 32.90625 
C 23 36.796875 26.703125 38.796875 29.796875 38.796875 
C 33.59375 38.796875 36.40625 36.390625 36.40625 29.71875 
L 36.40625 12.359375 
C 36.40625 4.1875 35.59375 3.6875 30.203125 3.296875 
C 29.703125 2.6875 29.703125 0.59375 30.203125 0 
C 32.703125 0.09375 36.40625 0.1875 40.40625 0.1875 
C 44.40625 0.1875 47.703125 0.09375 50.203125 0 
C 50.703125 0.59375 50.703125 2.6875 50.203125 3.296875 
C 45.203125 3.6875 44.296875 4.1875 44.296875 12.359375 
L 44.296875 28.21875 
C 44.296875 29.625 44.296875 31.015625 44.203125 32.203125 
C 49 37.5 53.5 38.796875 57.40625 38.796875 
C 61.203125 38.796875 63.40625 36.59375 63.40625 29.921875 
L 63.40625 12.359375 
C 63.40625 4.1875 62.40625 3.6875 57.203125 3.296875 
C 56.703125 2.6875 56.703125 0.59375 57.203125 0 
C 59.703125 0.09375 63.40625 0.1875 67.40625 0.1875 
C 71.40625 0.1875 74.90625 0.09375 77.703125 0 
C 78.203125 0.59375 78.203125 2.6875 77.703125 3.296875 
C 72.203125 3.6875 71.296875 4.1875 71.296875 12.359375 
L 71.296875 28.125 
C 71.296875 37 69.796875 44 61 44 
C 55.90625 44 49.703125 42.09375 44.5 36.59375 
C 44.203125 36.296875 43.59375 35.796875 43.40625 36.703125 
C 42.5 40.796875 38.59375 44 33.40625 44 
C 27.59375 44 22.40625 40.59375 18.203125 35.90625 
C 17.703125 35.40625 17.09375 34.703125 17 35.90625 
z
" id="Linux_Libertine_T-109"/>
       <path d="M 25.40625 25.1875 
C 25.40625 29.6875 25 52.796875 4.203125 70.796875 
C 3.203125 70.59375 2.40625 69.890625 2.09375 69.09375 
C 5.40625 65.296875 17.09375 51.5 17.09375 25.1875 
C 17.09375 -1.109375 5.296875 -14.90625 2.09375 -18.515625 
C 2.40625 -19.515625 3.09375 -20.203125 4.203125 -20.3125 
C 16.09375 -10.109375 25.40625 6.59375 25.40625 25.1875 
z
" id="Linux_Libertine_T-41"/>
      </defs>
      <use transform="scale(0.996264)" xlink:href="#Linux_Libertine_T-76"/>
      <use transform="translate(52.602728 0)scale(0.996264)" xlink:href="#Linux_Libertine_T-97"/>
      <use transform="translate(98.131959 0)scale(0.996264)" xlink:href="#Linux_Libertine_T-116"/>
      <use transform="translate(129.613893 0)scale(0.996264)" xlink:href="#Linux_Libertine_T-101"/>
      <use transform="translate(174.146846 0)scale(0.996264)" xlink:href="#Linux_Libertine_T-110"/>
      <use transform="translate(228.144337 0)scale(0.996264)" xlink:href="#Linux_Libertine_T-99"/>
      <use transform="translate(270.78447 0)scale(0.996264)" xlink:href="#Linux_Libertine_T-121"/>
      <use transform="translate(346.998697 0)scale(0.996264)" xlink:href="#Linux_Libertine_T-40"/>
      <use transform="translate(376.687398 0)scale(0.996264)" xlink:href="#Linux_Libertine_T-105"/>
      <use transform="translate(403.686143 0)scale(0.996264)" xlink:href="#Linux_Libertine_T-110"/>
      <use transform="translate(482.590235 0)scale(0.996264)" xlink:href="#Linux_Libertine_T-109"/>
      <use transform="translate(561.295076 0)scale(0.996264)" xlink:href="#Linux_Libertine_T-115"/>
      <use transform="translate(600.149403 0)scale(0.996264)" xlink:href="#Linux_Libertine_T-41"/>
     </g>
    </g>
   </g>
   <g id="legend_1">
    <g id="patch_7">
     <path d="M 26.42904 44.65238 
L 106.021941 44.65238 
L 106.021941 1.484928 
L 26.42904 1.484928 
z
" style="fill:#ecf4f3;stroke:#000000;stroke-linejoin:miter;"/>
    </g>
    <g id="line2d_19">
     <path d="M 33.62904 9.134928 
L 54.77904 9.134928 
" style="fill:none;stroke:#003359;stroke-linecap:square;stroke-linejoin:miter;stroke-width:1.5;"/>
    </g>
    <g id="line2d_20"/>
    <g id="text_12">
     <!-- GNU\,Radio -->
     <g transform="translate(60.62904 12.284928)scale(0.09 -0.09)">
      <defs>
       <path d="M 37.703125 66 
C 21 66 3.703125 52.796875 3.703125 30.59375 
C 3.703125 12.65625 16.09375 -1 35.203125 -1 
C 47 -1 56.296875 1.5 63.09375 7.265625 
C 62 8.171875 61.5 8.96875 61.5 10.0625 
L 61.5 21.609375 
C 61.5 25.09375 63.203125 26.09375 66.09375 26.390625 
C 66.703125 26.984375 66.703125 29.390625 66.09375 30 
C 63.703125 29.890625 61.203125 29.796875 57.203125 29.796875 
C 53.90625 29.796875 49.203125 29.890625 44.796875 30 
C 44.203125 29.390625 44.203125 26.984375 44.796875 26.390625 
C 50.296875 26 53 25.59375 53 21.609375 
L 53 6.375 
C 49.59375 3.1875 42.90625 2.59375 37.5 2.59375 
C 21.703125 2.59375 13.296875 19.421875 13.296875 32.609375 
C 13.296875 50.28125 24.703125 62.390625 36.296875 62.390625 
C 50.796875 62.390625 54.90625 54.015625 57.5 45.328125 
C 58.59375 45.234375 59.703125 45.4375 60.796875 45.9375 
C 60.59375 50.171875 60.09375 54.21875 58.5 61.484375 
C 52.5 62.484375 48.796875 66 37.703125 66 
z
" id="Linux_Libertine_T-71"/>
       <path d="M 55.59375 51.46875 
L 55.59375 18.71875 
C 55.59375 16.8125 55.59375 15.71875 54.90625 15.71875 
C 54.5 15.71875 53 17.515625 50.09375 21.21875 
L 15.796875 64.796875 
L 2.296875 65 
C 1.703125 64.390625 1.703125 62.296875 2.296875 61.6875 
C 6.59375 61.390625 9.59375 57.890625 10.203125 55.28125 
L 10.203125 13.515625 
C 10.203125 4.59375 8.5 4 1.5 3.296875 
C 0.90625 2.6875 0.90625 0.59375 1.5 0 
C 5.796875 0.09375 10.296875 0.1875 12.703125 0.1875 
C 15 0.1875 19.59375 0.09375 23.796875 0 
C 24.40625 0.59375 24.40625 2.6875 23.796875 3.296875 
C 16.796875 4 15.09375 4.390625 15.09375 13.515625 
L 15.09375 44.15625 
C 15.09375 47.5625 15.09375 49.078125 15.90625 49.078125 
C 16.5 49.078125 17.59375 47.96875 19.296875 45.765625 
L 54.203125 1.59375 
C 55.296875 -0.109375 56.59375 -1 58.203125 -1 
C 59.59375 -1 60.5 0.203125 60.5 2.109375 
L 60.5 51.4375 
C 60.5 60.390625 62.203125 60.984375 69.203125 61.6875 
C 69.796875 62.296875 69.796875 64.390625 69.203125 65 
C 65.09375 64.890625 60.40625 64.796875 58 64.796875 
C 55.90625 64.796875 51.296875 64.890625 46.90625 65 
C 46.296875 64.390625 46.296875 62.296875 46.90625 61.6875 
C 53.90625 61 55.59375 60.59375 55.59375 51.46875 
z
" id="Linux_Libertine_T-78"/>
       <path d="M 17.203125 52.546875 
C 17.203125 60.890625 18.703125 61.390625 26.40625 61.6875 
C 27 62.296875 27 64.390625 26.40625 65 
C 21.703125 64.890625 16.796875 64.796875 12.90625 64.796875 
C 9 64.796875 4.90625 64.890625 1 65 
C 0.40625 64.390625 0.40625 62.296875 1 61.6875 
C 7 61.390625 8.703125 60.890625 8.703125 52.546875 
L 8.703125 23.390625 
C 8.703125 2.890625 21.90625 -1 32.09375 -1 
C 52.59375 -1 57.5 11.734375 57.5 29.625 
L 57.5 52.546875 
C 57.5 60.578125 59.203125 60.984375 65.203125 61.6875 
C 65.796875 62.296875 65.796875 64.390625 65.203125 65 
C 61.40625 64.890625 57.296875 64.796875 55 64.796875 
C 52.90625 64.796875 48 64.890625 43.40625 65 
C 42.796875 64.390625 42.796875 62.296875 43.40625 61.6875 
C 50.90625 60.984375 52.59375 60.6875 52.59375 52.546875 
L 52.59375 27.8125 
C 52.59375 16.5625 51.09375 3.09375 34.203125 3.09375 
C 29.40625 3.09375 25.296875 4.90625 22.296875 7.8125 
C 17.40625 12.546875 17.203125 20.171875 17.203125 26.71875 
z
" id="Linux_Libertine_T-85"/>
       <path d="M 27.203125 62.59375 
C 33.296875 62.59375 40.5 60.375 40.5 48.453125 
C 40.5 35.828125 33.40625 33 23.703125 33 
L 18.90625 33 
L 18.90625 56.125 
C 18.90625 59.0625 20.09375 62.59375 27.203125 62.59375 
z
M 18.90625 12.6875 
L 18.90625 29.59375 
C 27.296875 29.59375 29.203125 28.09375 30.59375 25.796875 
L 41.296875 8.390625 
C 44.203125 3.21875 48.5 -1 54.5 -1 
C 56 -1 57.703125 -0.8125 58.703125 -0.3125 
C 59.09375 0.390625 59 1.296875 58.59375 2.09375 
C 54.09375 2.09375 51.59375 5.5625 49 9.9375 
L 36.40625 31.296875 
C 40.703125 32.6875 49.703125 37.9375 49.703125 48.546875 
C 49.703125 53.609375 48 57.75 44.40625 61.171875 
C 39.59375 65.6875 33.40625 66 27.09375 66 
C 22.40625 66 18.203125 65.296875 14.59375 65.296875 
C 11.09375 65.296875 6.40625 65.390625 1.703125 65.484375 
C 1.09375 64.890625 1.09375 62.796875 1.703125 62.1875 
C 8.703125 61.890625 10.40625 61.375 10.40625 53 
L 10.40625 12.375 
C 10.40625 4.109375 8.703125 3.59375 1.703125 3.296875 
C 1.09375 2.6875 1.09375 0.59375 1.703125 0 
C 6.203125 0.09375 10.90625 0.1875 14.703125 0.1875 
C 18.5 0.1875 23.203125 0.09375 27.59375 0 
C 28.203125 0.59375 28.203125 2.6875 27.59375 3.296875 
C 20.59375 3.59375 18.90625 4.109375 18.90625 12.5 
z
" id="Linux_Libertine_T-82"/>
       <path d="M 34.5 12.421875 
C 34.5 10.515625 34.296875 9.703125 32.90625 8.5 
C 29.203125 5.296875 26 3.6875 23.5 3.6875 
C 18.09375 3.6875 12.5 9.609375 12.5 22.140625 
C 12.5 29.359375 13.90625 33.375 15.40625 35.484375 
C 18.5 40.1875 22.703125 40.484375 24.703125 40.484375 
C 28.296875 40.484375 30.796875 39.1875 32.796875 36.875 
C 34.203125 35.28125 34.5 34.578125 34.5 31.46875 
z
M 33.40625 5 
C 33.90625 5.390625 34.796875 5.59375 34.90625 4.890625 
C 35.203125 2.5 36 -1 36 -1 
C 36.796875 -1.3125 37.296875 -1.203125 37.90625 -1 
C 40.09375 0.796875 43.59375 2.296875 49.703125 3 
C 50.296875 3.59375 50.296875 5.09375 49.703125 5.6875 
C 43.296875 6.1875 42.40625 8.09375 42.40625 13.015625 
L 42.40625 58.25 
C 42.40625 64.6875 42.796875 68.875 42.796875 68.875 
C 42.796875 69.65625 42.40625 70 41.5 70 
C 39 68.875 31.5 67.328125 27.5 67 
C 27.296875 66.1875 27.5 64.59375 28.09375 64 
C 33.296875 63.703125 34.5 64.1875 34.5 55.875 
L 34.5 43.1875 
C 34.5 42.484375 34.296875 42.296875 33.59375 42.296875 
C 33.203125 42.296875 29.09375 44 25.796875 44 
C 19.203125 44 14.796875 41.796875 10.796875 37.984375 
C 6.5 33.671875 3.90625 27.75 3.90625 20.328125 
C 3.90625 8 10.09375 -1 20.90625 -1 
C 24.796875 -1 28.5 1 33.40625 5 
z
" id="Linux_Libertine_T-100"/>
       <path d="M 4.09375 20.546875 
C 4.09375 10.3125 10.90625 -1 25.09375 -1 
C 31.5 -1 36.40625 1.296875 39.796875 4.59375 
C 44.296875 9.015625 46.296875 15.328125 46.296875 21.4375 
C 46.296875 31.875 40.59375 44 25.296875 44 
C 18.703125 44 13.296875 41.296875 9.59375 36.984375 
C 6 32.671875 4.09375 26.859375 4.09375 20.546875 
z
M 23.796875 40.484375 
C 32.40625 40.484375 37.703125 32.671875 37.703125 18.234375 
C 37.703125 5.59375 31.203125 2.5 26.5 2.5 
C 16.09375 2.5 12.703125 15.125 12.703125 22.84375 
C 12.703125 31.5625 14.796875 40.484375 23.796875 40.484375 
z
" id="Linux_Libertine_T-111"/>
      </defs>
      <use transform="scale(0.996264)" xlink:href="#Linux_Libertine_T-71"/>
      <use transform="translate(68.244115 0)scale(0.996264)" xlink:href="#Linux_Libertine_T-78"/>
      <use transform="translate(140.274036 0)scale(0.996264)" xlink:href="#Linux_Libertine_T-85"/>
      <use transform="translate(222.735056 0)scale(0.996264)" xlink:href="#Linux_Libertine_T-82"/>
      <use transform="translate(281.215735 0)scale(0.996264)" xlink:href="#Linux_Libertine_T-97"/>
      <use transform="translate(326.744967 0)scale(0.996264)" xlink:href="#Linux_Libertine_T-100"/>
      <use transform="translate(377.155871 0)scale(0.996264)" xlink:href="#Linux_Libertine_T-105"/>
      <use transform="translate(404.154617 0)scale(0.996264)" xlink:href="#Linux_Libertine_T-111"/>
     </g>
    </g>
    <g id="line2d_21">
     <path d="M 33.62904 22.024079 
L 54.77904 22.024079 
" style="fill:none;stroke:#ff7900;stroke-linecap:square;stroke-linejoin:miter;stroke-width:1.5;"/>
    </g>
    <g id="line2d_22"/>
    <g id="text_13">
     <!-- Smol-N -->
     <g transform="translate(60.62904 25.174079)scale(0.09 -0.09)">
      <defs>
       <path d="M 9.5 12.34375 
C 9.5 4.09375 8.40625 3.59375 2.296875 3.296875 
C 1.703125 2.6875 1.703125 0.59375 2.296875 0 
C 5.796875 0.09375 9.5 0.1875 13.5 0.1875 
C 17.5 0.1875 21.296875 0.09375 24.59375 0 
C 25.203125 0.59375 25.203125 2.6875 24.59375 3.296875 
C 18.5 3.59375 17.40625 4.09375 17.40625 12.34375 
L 17.40625 58.21875 
C 17.40625 64.6875 17.796875 68.875 17.796875 68.875 
C 17.796875 69.65625 17.40625 70 16.5 70 
C 14 68.875 6.5 67.328125 2.5 67 
C 2.296875 66.1875 2.5 64.59375 3.09375 64 
C 8.90625 63.59375 9.5 63.296875 9.5 55.828125 
z
" id="Linux_Libertine_T-108"/>
       <path d="M 27.09375 22 
C 28.40625 22 29.796875 24.796875 29.796875 26 
C 29.796875 27 29.40625 28 28.40625 28 
L 6.5 28 
C 5.296875 28 4 25.6875 4 23.890625 
C 4 22.890625 4.59375 22 5.5 22 
z
" id="Linux_Libertine_T-45"/>
      </defs>
      <use transform="scale(0.996264)" xlink:href="#Linux_Libertine_T-83"/>
      <use transform="translate(48.318759 0)scale(0.996264)" xlink:href="#Linux_Libertine_T-109"/>
      <use transform="translate(127.0236 0)scale(0.996264)" xlink:href="#Linux_Libertine_T-111"/>
      <use transform="translate(177.23527 0)scale(0.996264)" xlink:href="#Linux_Libertine_T-108"/>
      <use transform="translate(203.536634 0)scale(0.996264)" xlink:href="#Linux_Libertine_T-45"/>
      <use transform="translate(237.210376 0)scale(0.996264)" xlink:href="#Linux_Libertine_T-78"/>
     </g>
    </g>
    <g id="line2d_23">
     <path d="M 33.62904 34.913229 
L 54.77904 34.913229 
" style="fill:none;stroke:#00747a;stroke-linecap:square;stroke-linejoin:miter;stroke-width:1.5;"/>
    </g>
    <g id="line2d_24"/>
    <g id="text_14">
     <!-- Flow -->
     <g transform="translate(60.62904 38.063229)scale(0.09 -0.09)">
      <defs>
       <path d="M 28.296875 33 
C 36.796875 33 37.09375 30.65625 37.40625 26.078125 
C 38 25.46875 40.09375 25.46875 40.703125 26.078125 
C 40.59375 28.625 40.5 31.5625 40.5 35 
C 40.5 38.375 40.59375 40.953125 40.703125 43.53125 
C 40.09375 44.125 38 44.125 37.40625 43.53125 
C 37.09375 38.078125 36.796875 36.796875 28.296875 36.796875 
L 19 36.796875 
L 19 54.640625 
C 19 60 20.203125 60.984375 24.59375 60.984375 
L 29.09375 60.984375 
C 39.703125 60.984375 42.203125 57.03125 44.40625 50.1875 
C 45.59375 50.1875 46.703125 50.375 47.5 50.671875 
C 47 54.75 45.5 64.296875 45.296875 65.09375 
C 45.296875 65.296875 45.203125 65.390625 44.90625 65.390625 
C 43.203125 65.09375 42.703125 65 40.203125 65 
L 14.703125 65 
C 11.5 64.796875 5.796875 64.890625 1.796875 65 
C 1.203125 64.390625 1.203125 62.296875 1.796875 61.6875 
C 8.796875 61.390625 10.5 60.90625 10.5 52.734375 
L 10.5 12.546875 
C 10.5 4.109375 8.796875 3.59375 1.796875 3.296875 
C 1.203125 2.6875 1.203125 0.59375 1.796875 0 
C 5.296875 0.09375 10.296875 0.1875 14.796875 0.1875 
C 19.296875 0.1875 24.203125 0.09375 27.703125 0 
C 28.296875 0.59375 28.296875 2.6875 27.703125 3.296875 
C 20.703125 3.59375 19 4.109375 19 12.546875 
L 19 33 
z
" id="Linux_Libertine_T-70"/>
       <path d="M 20.296875 39.6875 
C 20.90625 40.296875 20.90625 42.390625 20.296875 43 
C 17.296875 42.890625 13.796875 42.796875 10.203125 42.796875 
C 6.40625 42.796875 3.703125 42.890625 1.09375 43 
C 0.5 42.390625 0.5 40.296875 1.09375 39.6875 
C 5.796875 39.203125 6.90625 38.203125 9 33.046875 
L 22.09375 0.984375 
C 22.703125 -0.40625 23.5 -1 24.5 -1 
C 25.40625 -1 26.203125 -0.40625 26.90625 1.171875 
L 37 25.59375 
L 47.296875 0.984375 
C 47.90625 -0.40625 48.703125 -1 49.703125 -1 
C 50.59375 -1 51.40625 -0.40625 52 1.078125 
L 65.09375 32.546875 
C 66.703125 36.609375 68.40625 39.390625 73.5 39.6875 
C 74.09375 40.296875 74.09375 42.390625 73.5 43 
C 71.5 42.890625 69.296875 42.796875 66.296875 42.796875 
C 63.296875 42.796875 59.09375 42.890625 56.09375 43 
C 55.5 42.390625 55.5 40.296875 56.09375 39.6875 
C 63.59375 39.296875 62.59375 36.421875 61.203125 32.9375 
L 52.796875 12.296875 
C 51.796875 9.8125 51.40625 9.8125 50.59375 11.890625 
L 42 33.640625 
C 40.09375 38.296875 40.296875 39.296875 45.59375 39.6875 
C 46.203125 40.296875 46.203125 42.390625 45.59375 43 
C 42.59375 42.890625 38.59375 42.796875 35.59375 42.796875 
C 33.09375 42.796875 29.796875 42.890625 26.796875 43 
C 26.203125 42.390625 26.203125 40.296875 26.796875 39.6875 
C 31.5 39.296875 32.703125 36.421875 34.5 31.953125 
L 35.09375 30.359375 
L 28.09375 12.796875 
C 26.796875 9.515625 26.59375 9.421875 25.296875 12.59375 
L 17.296875 33.046875 
C 15.40625 37.8125 15.5 39.390625 20.296875 39.6875 
z
" id="Linux_Libertine_T-119"/>
      </defs>
      <use transform="scale(0.996264)" xlink:href="#Linux_Libertine_T-70"/>
      <use transform="translate(49.514273 0)scale(0.996264)" xlink:href="#Linux_Libertine_T-108"/>
      <use transform="translate(75.815636 0)scale(0.996264)" xlink:href="#Linux_Libertine_T-111"/>
      <use transform="translate(125.329924 0)scale(0.996264)" xlink:href="#Linux_Libertine_T-119"/>
     </g>
    </g>
   </g>
  </g>
 </g>
 <defs>
  <clipPath id="pea0cef05c3">
   <rect height="118.497254" width="206.62704" x="26.42904" y="1.484928"/>
  </clipPath>
 </defs>
</svg>
