<?xml version="1.0" encoding="utf-8" standalone="no"?>
<!DOCTYPE svg PUBLIC "-//W3C//DTD SVG 1.1//EN"
  "http://www.w3.org/Graphics/SVG/1.1/DTD/svg11.dtd">
<!-- Created with matplotlib (https://matplotlib.org/) -->
<svg height="148.4928pt" version="1.1" viewBox="0 0 240.264 148.4928" width="240.264pt" xmlns="http://www.w3.org/2000/svg" xmlns:xlink="http://www.w3.org/1999/xlink">
 <metadata>
  <rdf:RDF xmlns:cc="http://creativecommons.org/ns#" xmlns:dc="http://purl.org/dc/elements/1.1/" xmlns:rdf="http://www.w3.org/1999/02/22-rdf-syntax-ns#">
   <cc:Work>
    <dc:type rdf:resource="http://purl.org/dc/dcmitype/StillImage"/>
    <dc:date>2021-11-04T21:34:26.286405</dc:date>
    <dc:format>image/svg+xml</dc:format>
    <dc:creator>
     <cc:Agent>
      <dc:title>Matplotlib v3.3.4, https://matplotlib.org/</dc:title>
     </cc:Agent>
    </dc:creator>
   </cc:Work>
  </rdf:RDF>
 </metadata>
 <defs>
  <style type="text/css">*{stroke-linecap:butt;stroke-linejoin:round;}</style>
 </defs>
 <g id="figure_1">
  <g id="patch_1">
   <path d="M 0 148.4928 
L 240.264 148.4928 
L 240.264 0 
L 0 0 
z
" style="fill:#ecf4f3;"/>
  </g>
  <g id="axes_1">
   <g id="patch_2">
    <path d="M 26.42904 119.982182 
L 233.05608 119.982182 
L 233.05608 1.484928 
L 26.42904 1.484928 
z
" style="fill:#ecf4f3;"/>
   </g>
   <g id="LineCollection_1">
    <path clip-path="url(#p3ec75e6f89)" d="M 26.42904 119.961664 
L 26.42904 119.961343 
" style="fill:none;stroke:#003359;stroke-width:1.5;"/>
    <path clip-path="url(#p3ec75e6f89)" d="M 27.982627 119.859311 
L 27.982627 119.855415 
" style="fill:none;stroke:#003359;stroke-width:1.5;"/>
    <path clip-path="url(#p3ec75e6f89)" d="M 30.571938 119.639213 
L 30.571938 119.636036 
" style="fill:none;stroke:#003359;stroke-width:1.5;"/>
    <path clip-path="url(#p3ec75e6f89)" d="M 34.196974 119.282482 
L 34.196974 119.274812 
" style="fill:none;stroke:#003359;stroke-width:1.5;"/>
    <path clip-path="url(#p3ec75e6f89)" d="M 38.857734 118.706529 
L 38.857734 118.699599 
" style="fill:none;stroke:#003359;stroke-width:1.5;"/>
    <path clip-path="url(#p3ec75e6f89)" d="M 44.554219 117.884646 
L 44.554219 117.873158 
" style="fill:none;stroke:#003359;stroke-width:1.5;"/>
    <path clip-path="url(#p3ec75e6f89)" d="M 51.286428 116.668663 
L 51.286428 116.656577 
" style="fill:none;stroke:#003359;stroke-width:1.5;"/>
    <path clip-path="url(#p3ec75e6f89)" d="M 59.054362 115.002565 
L 59.054362 114.985698 
" style="fill:none;stroke:#003359;stroke-width:1.5;"/>
    <path clip-path="url(#p3ec75e6f89)" d="M 67.85802 112.77197 
L 67.85802 112.749361 
" style="fill:none;stroke:#003359;stroke-width:1.5;"/>
    <path clip-path="url(#p3ec75e6f89)" d="M 77.697403 109.845868 
L 77.697403 109.795721 
" style="fill:none;stroke:#003359;stroke-width:1.5;"/>
    <path clip-path="url(#p3ec75e6f89)" d="M 88.572511 106.130005 
L 88.572511 106.057252 
" style="fill:none;stroke:#003359;stroke-width:1.5;"/>
    <path clip-path="url(#p3ec75e6f89)" d="M 100.483343 101.433396 
L 100.483343 101.347688 
" style="fill:none;stroke:#003359;stroke-width:1.5;"/>
    <path clip-path="url(#p3ec75e6f89)" d="M 113.429899 95.336563 
L 113.429899 95.21088 
" style="fill:none;stroke:#003359;stroke-width:1.5;"/>
    <path clip-path="url(#p3ec75e6f89)" d="M 127.41218 87.683507 
L 127.41218 87.56874 
" style="fill:none;stroke:#003359;stroke-width:1.5;"/>
    <path clip-path="url(#p3ec75e6f89)" d="M 142.430185 78.508284 
L 142.430185 78.306769 
" style="fill:none;stroke:#003359;stroke-width:1.5;"/>
    <path clip-path="url(#p3ec75e6f89)" d="M 158.483915 67.762537 
L 158.483915 67.576561 
" style="fill:none;stroke:#003359;stroke-width:1.5;"/>
    <path clip-path="url(#p3ec75e6f89)" d="M 175.57337 54.697964 
L 175.57337 54.489696 
" style="fill:none;stroke:#003359;stroke-width:1.5;"/>
    <path clip-path="url(#p3ec75e6f89)" d="M 193.698549 39.495922 
L 193.698549 39.309334 
" style="fill:none;stroke:#003359;stroke-width:1.5;"/>
    <path clip-path="url(#p3ec75e6f89)" d="M 212.859452 22.024118 
L 212.859452 21.818698 
" style="fill:none;stroke:#003359;stroke-width:1.5;"/>
    <path clip-path="url(#p3ec75e6f89)" d="M 233.05608 1.772744 
L 233.05608 1.484928 
" style="fill:none;stroke:#003359;stroke-width:1.5;"/>
   </g>
   <g id="LineCollection_2">
    <path clip-path="url(#p3ec75e6f89)" d="M 26.42904 119.982182 
L 26.42904 119.981095 
" style="fill:none;stroke:#ff7900;stroke-width:1.5;"/>
    <path clip-path="url(#p3ec75e6f89)" d="M 27.982627 119.979661 
L 27.982627 119.978988 
" style="fill:none;stroke:#ff7900;stroke-width:1.5;"/>
    <path clip-path="url(#p3ec75e6f89)" d="M 30.571938 119.976702 
L 30.571938 119.975647 
" style="fill:none;stroke:#ff7900;stroke-width:1.5;"/>
    <path clip-path="url(#p3ec75e6f89)" d="M 34.196974 119.972323 
L 34.196974 119.971055 
" style="fill:none;stroke:#ff7900;stroke-width:1.5;"/>
    <path clip-path="url(#p3ec75e6f89)" d="M 38.857734 119.968112 
L 38.857734 119.966257 
" style="fill:none;stroke:#ff7900;stroke-width:1.5;"/>
    <path clip-path="url(#p3ec75e6f89)" d="M 44.554219 119.961441 
L 44.554219 119.958918 
" style="fill:none;stroke:#ff7900;stroke-width:1.5;"/>
    <path clip-path="url(#p3ec75e6f89)" d="M 51.286428 119.954366 
L 51.286428 119.950985 
" style="fill:none;stroke:#ff7900;stroke-width:1.5;"/>
    <path clip-path="url(#p3ec75e6f89)" d="M 59.054362 119.946806 
L 59.054362 119.944106 
" style="fill:none;stroke:#ff7900;stroke-width:1.5;"/>
    <path clip-path="url(#p3ec75e6f89)" d="M 67.85802 119.936612 
L 67.85802 119.934887 
" style="fill:none;stroke:#ff7900;stroke-width:1.5;"/>
    <path clip-path="url(#p3ec75e6f89)" d="M 77.697403 119.928842 
L 77.697403 119.914484 
" style="fill:none;stroke:#ff7900;stroke-width:1.5;"/>
    <path clip-path="url(#p3ec75e6f89)" d="M 88.572511 119.917158 
L 88.572511 119.915172 
" style="fill:none;stroke:#ff7900;stroke-width:1.5;"/>
    <path clip-path="url(#p3ec75e6f89)" d="M 100.483343 119.902859 
L 100.483343 119.89798 
" style="fill:none;stroke:#ff7900;stroke-width:1.5;"/>
    <path clip-path="url(#p3ec75e6f89)" d="M 113.429899 119.890728 
L 113.429899 119.886874 
" style="fill:none;stroke:#ff7900;stroke-width:1.5;"/>
    <path clip-path="url(#p3ec75e6f89)" d="M 127.41218 119.876622 
L 127.41218 119.870504 
" style="fill:none;stroke:#ff7900;stroke-width:1.5;"/>
    <path clip-path="url(#p3ec75e6f89)" d="M 142.430185 119.856603 
L 142.430185 119.850729 
" style="fill:none;stroke:#ff7900;stroke-width:1.5;"/>
    <path clip-path="url(#p3ec75e6f89)" d="M 158.483915 119.843164 
L 158.483915 119.829649 
" style="fill:none;stroke:#ff7900;stroke-width:1.5;"/>
    <path clip-path="url(#p3ec75e6f89)" d="M 175.57337 119.822441 
L 175.57337 119.816678 
" style="fill:none;stroke:#ff7900;stroke-width:1.5;"/>
    <path clip-path="url(#p3ec75e6f89)" d="M 193.698549 119.805757 
L 193.698549 119.799615 
" style="fill:none;stroke:#ff7900;stroke-width:1.5;"/>
    <path clip-path="url(#p3ec75e6f89)" d="M 212.859452 119.789256 
L 212.859452 119.781572 
" style="fill:none;stroke:#ff7900;stroke-width:1.5;"/>
    <path clip-path="url(#p3ec75e6f89)" d="M 233.05608 119.769171 
L 233.05608 119.761232 
" style="fill:none;stroke:#ff7900;stroke-width:1.5;"/>
   </g>
   <g id="line2d_1">
    <defs>
     <path d="M 3 0 
L -3 -0 
" id="m1e53e47470" style="stroke:#003359;stroke-width:0.5;"/>
    </defs>
    <g clip-path="url(#p3ec75e6f89)">
     <use style="fill:#003359;stroke:#003359;stroke-width:0.5;" x="26.42904" xlink:href="#m1e53e47470" y="119.961664"/>
     <use style="fill:#003359;stroke:#003359;stroke-width:0.5;" x="27.982627" xlink:href="#m1e53e47470" y="119.859311"/>
     <use style="fill:#003359;stroke:#003359;stroke-width:0.5;" x="30.571938" xlink:href="#m1e53e47470" y="119.639213"/>
     <use style="fill:#003359;stroke:#003359;stroke-width:0.5;" x="34.196974" xlink:href="#m1e53e47470" y="119.282482"/>
     <use style="fill:#003359;stroke:#003359;stroke-width:0.5;" x="38.857734" xlink:href="#m1e53e47470" y="118.706529"/>
     <use style="fill:#003359;stroke:#003359;stroke-width:0.5;" x="44.554219" xlink:href="#m1e53e47470" y="117.884646"/>
     <use style="fill:#003359;stroke:#003359;stroke-width:0.5;" x="51.286428" xlink:href="#m1e53e47470" y="116.668663"/>
     <use style="fill:#003359;stroke:#003359;stroke-width:0.5;" x="59.054362" xlink:href="#m1e53e47470" y="115.002565"/>
     <use style="fill:#003359;stroke:#003359;stroke-width:0.5;" x="67.85802" xlink:href="#m1e53e47470" y="112.77197"/>
     <use style="fill:#003359;stroke:#003359;stroke-width:0.5;" x="77.697403" xlink:href="#m1e53e47470" y="109.845868"/>
     <use style="fill:#003359;stroke:#003359;stroke-width:0.5;" x="88.572511" xlink:href="#m1e53e47470" y="106.130005"/>
     <use style="fill:#003359;stroke:#003359;stroke-width:0.5;" x="100.483343" xlink:href="#m1e53e47470" y="101.433396"/>
     <use style="fill:#003359;stroke:#003359;stroke-width:0.5;" x="113.429899" xlink:href="#m1e53e47470" y="95.336563"/>
     <use style="fill:#003359;stroke:#003359;stroke-width:0.5;" x="127.41218" xlink:href="#m1e53e47470" y="87.683507"/>
     <use style="fill:#003359;stroke:#003359;stroke-width:0.5;" x="142.430185" xlink:href="#m1e53e47470" y="78.508284"/>
     <use style="fill:#003359;stroke:#003359;stroke-width:0.5;" x="158.483915" xlink:href="#m1e53e47470" y="67.762537"/>
     <use style="fill:#003359;stroke:#003359;stroke-width:0.5;" x="175.57337" xlink:href="#m1e53e47470" y="54.697964"/>
     <use style="fill:#003359;stroke:#003359;stroke-width:0.5;" x="193.698549" xlink:href="#m1e53e47470" y="39.495922"/>
     <use style="fill:#003359;stroke:#003359;stroke-width:0.5;" x="212.859452" xlink:href="#m1e53e47470" y="22.024118"/>
     <use style="fill:#003359;stroke:#003359;stroke-width:0.5;" x="233.05608" xlink:href="#m1e53e47470" y="1.772744"/>
    </g>
   </g>
   <g id="line2d_2">
    <g clip-path="url(#p3ec75e6f89)">
     <use style="fill:#003359;stroke:#003359;stroke-width:0.5;" x="26.42904" xlink:href="#m1e53e47470" y="119.961343"/>
     <use style="fill:#003359;stroke:#003359;stroke-width:0.5;" x="27.982627" xlink:href="#m1e53e47470" y="119.855415"/>
     <use style="fill:#003359;stroke:#003359;stroke-width:0.5;" x="30.571938" xlink:href="#m1e53e47470" y="119.636036"/>
     <use style="fill:#003359;stroke:#003359;stroke-width:0.5;" x="34.196974" xlink:href="#m1e53e47470" y="119.274812"/>
     <use style="fill:#003359;stroke:#003359;stroke-width:0.5;" x="38.857734" xlink:href="#m1e53e47470" y="118.699599"/>
     <use style="fill:#003359;stroke:#003359;stroke-width:0.5;" x="44.554219" xlink:href="#m1e53e47470" y="117.873158"/>
     <use style="fill:#003359;stroke:#003359;stroke-width:0.5;" x="51.286428" xlink:href="#m1e53e47470" y="116.656577"/>
     <use style="fill:#003359;stroke:#003359;stroke-width:0.5;" x="59.054362" xlink:href="#m1e53e47470" y="114.985698"/>
     <use style="fill:#003359;stroke:#003359;stroke-width:0.5;" x="67.85802" xlink:href="#m1e53e47470" y="112.749361"/>
     <use style="fill:#003359;stroke:#003359;stroke-width:0.5;" x="77.697403" xlink:href="#m1e53e47470" y="109.795721"/>
     <use style="fill:#003359;stroke:#003359;stroke-width:0.5;" x="88.572511" xlink:href="#m1e53e47470" y="106.057252"/>
     <use style="fill:#003359;stroke:#003359;stroke-width:0.5;" x="100.483343" xlink:href="#m1e53e47470" y="101.347688"/>
     <use style="fill:#003359;stroke:#003359;stroke-width:0.5;" x="113.429899" xlink:href="#m1e53e47470" y="95.21088"/>
     <use style="fill:#003359;stroke:#003359;stroke-width:0.5;" x="127.41218" xlink:href="#m1e53e47470" y="87.56874"/>
     <use style="fill:#003359;stroke:#003359;stroke-width:0.5;" x="142.430185" xlink:href="#m1e53e47470" y="78.306769"/>
     <use style="fill:#003359;stroke:#003359;stroke-width:0.5;" x="158.483915" xlink:href="#m1e53e47470" y="67.576561"/>
     <use style="fill:#003359;stroke:#003359;stroke-width:0.5;" x="175.57337" xlink:href="#m1e53e47470" y="54.489696"/>
     <use style="fill:#003359;stroke:#003359;stroke-width:0.5;" x="193.698549" xlink:href="#m1e53e47470" y="39.309334"/>
     <use style="fill:#003359;stroke:#003359;stroke-width:0.5;" x="212.859452" xlink:href="#m1e53e47470" y="21.818698"/>
     <use style="fill:#003359;stroke:#003359;stroke-width:0.5;" x="233.05608" xlink:href="#m1e53e47470" y="1.484928"/>
    </g>
   </g>
   <g id="line2d_3">
    <defs>
     <path d="M 3 0 
L -3 -0 
" id="m26e0a4a6a4" style="stroke:#ff7900;stroke-width:0.5;"/>
    </defs>
    <g clip-path="url(#p3ec75e6f89)">
     <use style="fill:#ff7900;stroke:#ff7900;stroke-width:0.5;" x="26.42904" xlink:href="#m26e0a4a6a4" y="119.982182"/>
     <use style="fill:#ff7900;stroke:#ff7900;stroke-width:0.5;" x="27.982627" xlink:href="#m26e0a4a6a4" y="119.979661"/>
     <use style="fill:#ff7900;stroke:#ff7900;stroke-width:0.5;" x="30.571938" xlink:href="#m26e0a4a6a4" y="119.976702"/>
     <use style="fill:#ff7900;stroke:#ff7900;stroke-width:0.5;" x="34.196974" xlink:href="#m26e0a4a6a4" y="119.972323"/>
     <use style="fill:#ff7900;stroke:#ff7900;stroke-width:0.5;" x="38.857734" xlink:href="#m26e0a4a6a4" y="119.968112"/>
     <use style="fill:#ff7900;stroke:#ff7900;stroke-width:0.5;" x="44.554219" xlink:href="#m26e0a4a6a4" y="119.961441"/>
     <use style="fill:#ff7900;stroke:#ff7900;stroke-width:0.5;" x="51.286428" xlink:href="#m26e0a4a6a4" y="119.954366"/>
     <use style="fill:#ff7900;stroke:#ff7900;stroke-width:0.5;" x="59.054362" xlink:href="#m26e0a4a6a4" y="119.946806"/>
     <use style="fill:#ff7900;stroke:#ff7900;stroke-width:0.5;" x="67.85802" xlink:href="#m26e0a4a6a4" y="119.936612"/>
     <use style="fill:#ff7900;stroke:#ff7900;stroke-width:0.5;" x="77.697403" xlink:href="#m26e0a4a6a4" y="119.928842"/>
     <use style="fill:#ff7900;stroke:#ff7900;stroke-width:0.5;" x="88.572511" xlink:href="#m26e0a4a6a4" y="119.917158"/>
     <use style="fill:#ff7900;stroke:#ff7900;stroke-width:0.5;" x="100.483343" xlink:href="#m26e0a4a6a4" y="119.902859"/>
     <use style="fill:#ff7900;stroke:#ff7900;stroke-width:0.5;" x="113.429899" xlink:href="#m26e0a4a6a4" y="119.890728"/>
     <use style="fill:#ff7900;stroke:#ff7900;stroke-width:0.5;" x="127.41218" xlink:href="#m26e0a4a6a4" y="119.876622"/>
     <use style="fill:#ff7900;stroke:#ff7900;stroke-width:0.5;" x="142.430185" xlink:href="#m26e0a4a6a4" y="119.856603"/>
     <use style="fill:#ff7900;stroke:#ff7900;stroke-width:0.5;" x="158.483915" xlink:href="#m26e0a4a6a4" y="119.843164"/>
     <use style="fill:#ff7900;stroke:#ff7900;stroke-width:0.5;" x="175.57337" xlink:href="#m26e0a4a6a4" y="119.822441"/>
     <use style="fill:#ff7900;stroke:#ff7900;stroke-width:0.5;" x="193.698549" xlink:href="#m26e0a4a6a4" y="119.805757"/>
     <use style="fill:#ff7900;stroke:#ff7900;stroke-width:0.5;" x="212.859452" xlink:href="#m26e0a4a6a4" y="119.789256"/>
     <use style="fill:#ff7900;stroke:#ff7900;stroke-width:0.5;" x="233.05608" xlink:href="#m26e0a4a6a4" y="119.769171"/>
    </g>
   </g>
   <g id="line2d_4">
    <g clip-path="url(#p3ec75e6f89)">
     <use style="fill:#ff7900;stroke:#ff7900;stroke-width:0.5;" x="26.42904" xlink:href="#m26e0a4a6a4" y="119.981095"/>
     <use style="fill:#ff7900;stroke:#ff7900;stroke-width:0.5;" x="27.982627" xlink:href="#m26e0a4a6a4" y="119.978988"/>
     <use style="fill:#ff7900;stroke:#ff7900;stroke-width:0.5;" x="30.571938" xlink:href="#m26e0a4a6a4" y="119.975647"/>
     <use style="fill:#ff7900;stroke:#ff7900;stroke-width:0.5;" x="34.196974" xlink:href="#m26e0a4a6a4" y="119.971055"/>
     <use style="fill:#ff7900;stroke:#ff7900;stroke-width:0.5;" x="38.857734" xlink:href="#m26e0a4a6a4" y="119.966257"/>
     <use style="fill:#ff7900;stroke:#ff7900;stroke-width:0.5;" x="44.554219" xlink:href="#m26e0a4a6a4" y="119.958918"/>
     <use style="fill:#ff7900;stroke:#ff7900;stroke-width:0.5;" x="51.286428" xlink:href="#m26e0a4a6a4" y="119.950985"/>
     <use style="fill:#ff7900;stroke:#ff7900;stroke-width:0.5;" x="59.054362" xlink:href="#m26e0a4a6a4" y="119.944106"/>
     <use style="fill:#ff7900;stroke:#ff7900;stroke-width:0.5;" x="67.85802" xlink:href="#m26e0a4a6a4" y="119.934887"/>
     <use style="fill:#ff7900;stroke:#ff7900;stroke-width:0.5;" x="77.697403" xlink:href="#m26e0a4a6a4" y="119.914484"/>
     <use style="fill:#ff7900;stroke:#ff7900;stroke-width:0.5;" x="88.572511" xlink:href="#m26e0a4a6a4" y="119.915172"/>
     <use style="fill:#ff7900;stroke:#ff7900;stroke-width:0.5;" x="100.483343" xlink:href="#m26e0a4a6a4" y="119.89798"/>
     <use style="fill:#ff7900;stroke:#ff7900;stroke-width:0.5;" x="113.429899" xlink:href="#m26e0a4a6a4" y="119.886874"/>
     <use style="fill:#ff7900;stroke:#ff7900;stroke-width:0.5;" x="127.41218" xlink:href="#m26e0a4a6a4" y="119.870504"/>
     <use style="fill:#ff7900;stroke:#ff7900;stroke-width:0.5;" x="142.430185" xlink:href="#m26e0a4a6a4" y="119.850729"/>
     <use style="fill:#ff7900;stroke:#ff7900;stroke-width:0.5;" x="158.483915" xlink:href="#m26e0a4a6a4" y="119.829649"/>
     <use style="fill:#ff7900;stroke:#ff7900;stroke-width:0.5;" x="175.57337" xlink:href="#m26e0a4a6a4" y="119.816678"/>
     <use style="fill:#ff7900;stroke:#ff7900;stroke-width:0.5;" x="193.698549" xlink:href="#m26e0a4a6a4" y="119.799615"/>
     <use style="fill:#ff7900;stroke:#ff7900;stroke-width:0.5;" x="212.859452" xlink:href="#m26e0a4a6a4" y="119.781572"/>
     <use style="fill:#ff7900;stroke:#ff7900;stroke-width:0.5;" x="233.05608" xlink:href="#m26e0a4a6a4" y="119.761232"/>
    </g>
   </g>
   <g id="line2d_5">
    <path clip-path="url(#p3ec75e6f89)" d="M 26.42904 119.961504 
L 27.982627 119.857363 
L 30.571938 119.637625 
L 34.196974 119.278647 
L 38.857734 118.703064 
L 44.554219 117.878902 
L 51.286428 116.66262 
L 59.054362 114.994132 
L 67.85802 112.760665 
L 77.697403 109.820794 
L 88.572511 106.093628 
L 100.483343 101.390542 
L 113.429899 95.273722 
L 127.41218 87.626123 
L 142.430185 78.407527 
L 158.483915 67.669549 
L 175.57337 54.59383 
L 193.698549 39.402628 
L 212.859452 21.921408 
L 233.05608 1.628836 
" style="fill:none;stroke:#003359;stroke-linecap:square;stroke-linejoin:miter;stroke-width:1.5;"/>
   </g>
   <g id="line2d_6">
    <path clip-path="url(#p3ec75e6f89)" d="M 26.42904 119.981639 
L 27.982627 119.979325 
L 30.571938 119.976174 
L 34.196974 119.971689 
L 38.857734 119.967185 
L 44.554219 119.960179 
L 51.286428 119.952675 
L 59.054362 119.945456 
L 67.85802 119.935749 
L 77.697403 119.921663 
L 88.572511 119.916165 
L 100.483343 119.90042 
L 113.429899 119.888801 
L 127.41218 119.873563 
L 142.430185 119.853666 
L 158.483915 119.836407 
L 175.57337 119.819559 
L 193.698549 119.802686 
L 212.859452 119.785414 
L 233.05608 119.765202 
" style="fill:none;stroke:#ff7900;stroke-linecap:square;stroke-linejoin:miter;stroke-width:1.5;"/>
   </g>
   <g id="patch_3">
    <path d="M 26.42904 119.982182 
L 26.42904 1.484928 
" style="fill:none;stroke:#000000;stroke-linecap:square;stroke-linejoin:miter;"/>
   </g>
   <g id="patch_4">
    <path d="M 233.05608 119.982182 
L 233.05608 1.484928 
" style="fill:none;stroke:#000000;stroke-linecap:square;stroke-linejoin:miter;"/>
   </g>
   <g id="patch_5">
    <path d="M 26.42904 119.982182 
L 233.05608 119.982182 
" style="fill:none;stroke:#000000;stroke-linecap:square;stroke-linejoin:miter;"/>
   </g>
   <g id="patch_6">
    <path d="M 26.42904 1.484928 
L 233.05608 1.484928 
" style="fill:none;stroke:#000000;stroke-linecap:square;stroke-linejoin:miter;"/>
   </g>
   <g id="matplotlib.axis_1">
    <g id="xtick_1">
     <g id="line2d_7">
      <defs>
       <path d="M 0 0 
L 0 4 
" id="maa0d976653" style="stroke:#000000;stroke-width:0.5;"/>
      </defs>
      <g>
       <use style="stroke:#000000;stroke-width:0.5;" x="77.697403" xlink:href="#maa0d976653" y="119.982182"/>
      </g>
     </g>
     <g id="text_1">
      <!-- $\mathdefault{100}$ -->
      <g transform="translate(71.44336 134.269852)scale(0.09 -0.09)">
       <defs>
        <path d="M 28.796875 12.390625 
L 28.796875 47.09375 
C 28.796875 53.09375 28.90625 59.203125 29.09375 60.5 
C 29.09375 61 28.90625 61 28.5 61 
C 23 57.59375 17.703125 55.09375 8.90625 51 
C 9.09375 49.890625 9.5 48.890625 10.40625 48.296875 
C 15 50.1875 17.203125 50.796875 19.09375 50.796875 
C 20.796875 50.796875 21.09375 48.390625 21.09375 45 
L 21.09375 12.390625 
C 21.09375 4.09375 18.40625 3.59375 11.40625 3.296875 
C 10.796875 2.6875 10.796875 0.59375 11.40625 0 
C 16.296875 0.09375 19.90625 0.1875 25.296875 0.1875 
C 30.09375 0.1875 32.5 0.09375 37.5 0 
C 38.09375 0.59375 38.09375 2.6875 37.5 3.296875 
C 30.5 3.59375 28.796875 4.09375 28.796875 12.390625 
z
" id="Linux_Libertine_T-49"/>
        <path d="M 23.203125 57.484375 
C 24.90625 57.484375 26.5 56.890625 27.703125 55.796875 
C 30.796875 53.203125 33.5 45.59375 33.5 32.1875 
C 33.5 23 33.203125 16.6875 31.796875 11.59375 
C 29.59375 3.390625 24.703125 2.5 22.90625 2.5 
C 13.59375 2.5 12.59375 19.59375 12.59375 28.296875 
C 12.59375 52.890625 18.703125 57.484375 23.203125 57.484375 
z
M 22.796875 -1 
C 30.5 -1 42.203125 6.796875 42.203125 30.296875 
C 42.203125 40.1875 39.796875 48.6875 35.40625 54.5 
C 32.796875 57.984375 28.59375 61 23.203125 61 
C 13.296875 61 3.90625 49.1875 3.90625 29.390625 
C 3.90625 18.6875 7.203125 8.6875 12.703125 3.1875 
C 15.5 0.390625 18.90625 -1 22.796875 -1 
z
" id="Linux_Libertine_T-48"/>
       </defs>
       <use transform="scale(0.996264)" xlink:href="#Linux_Libertine_T-49"/>
       <use transform="translate(46.326292 0)scale(0.996264)" xlink:href="#Linux_Libertine_T-48"/>
       <use transform="translate(92.652583 0)scale(0.996264)" xlink:href="#Linux_Libertine_T-48"/>
      </g>
     </g>
    </g>
    <g id="xtick_2">
     <g id="line2d_8">
      <g>
       <use style="stroke:#000000;stroke-width:0.5;" x="129.483629" xlink:href="#maa0d976653" y="119.982182"/>
      </g>
     </g>
     <g id="text_2">
      <!-- $\mathdefault{200}$ -->
      <g transform="translate(123.229585 134.269852)scale(0.09 -0.09)">
       <defs>
        <path d="M 6.09375 46.859375 
C 6.09375 44.78125 8 43 10.09375 43 
C 11.796875 43 14.796875 44.78125 14.796875 46.96875 
C 14.796875 47.765625 14.59375 48.359375 14.40625 49.046875 
C 14.203125 49.75 13.59375 50.640625 13.59375 51.4375 
C 13.59375 53.921875 16.203125 57.484375 23.5 57.484375 
C 27.09375 57.484375 32.203125 55.015625 32.203125 45.46875 
C 32.203125 39.078125 29.90625 33.875 24 27.859375 
L 16.59375 20.53125 
C 6.796875 10.5 5.203125 5.6875 5.203125 -0.203125 
C 5.203125 -0.203125 10.296875 0 13.5 0 
L 31 0 
C 34.203125 0 38.796875 -0.203125 38.796875 -0.203125 
C 40.09375 5.09375 41.09375 12.609375 41.203125 15.625 
C 40.59375 16.125 39.296875 16.3125 38.296875 16.125 
C 36.59375 9 34.90625 6.5 31.296875 6.5 
L 13.5 6.5 
C 13.5 11.3125 20.40625 18.125 20.90625 18.625 
L 31 28.359375 
C 36.703125 33.875 41 38.28125 41 45.875 
C 41 56.59375 32.203125 61 24.09375 61 
C 13 61 6.09375 52.828125 6.09375 46.859375 
z
" id="Linux_Libertine_T-50"/>
       </defs>
       <use transform="scale(0.996264)" xlink:href="#Linux_Libertine_T-50"/>
       <use transform="translate(46.326292 0)scale(0.996264)" xlink:href="#Linux_Libertine_T-48"/>
       <use transform="translate(92.652583 0)scale(0.996264)" xlink:href="#Linux_Libertine_T-48"/>
      </g>
     </g>
    </g>
    <g id="xtick_3">
     <g id="line2d_9">
      <g>
       <use style="stroke:#000000;stroke-width:0.5;" x="181.269854" xlink:href="#maa0d976653" y="119.982182"/>
      </g>
     </g>
     <g id="text_3">
      <!-- $\mathdefault{300}$ -->
      <g transform="translate(175.015811 134.269852)scale(0.09 -0.09)">
       <defs>
        <path d="M 21.5 57.484375 
C 25.796875 57.484375 29.796875 54.875 29.796875 48.40625 
C 29.796875 43.375 24 35.609375 14.09375 34.1875 
L 14.59375 31 
C 16.296875 31.1875 18.09375 31.1875 19.40625 31.1875 
C 25.09375 31.1875 32.5 29.609375 32.5 18.375 
C 32.5 5.171875 23.59375 2.5 20.09375 2.5 
C 15 2.5 14.09375 4.78125 12.90625 6.5625 
C 11.90625 7.953125 10.59375 9.140625 8.59375 9.140625 
C 6.5 9.140625 4.40625 7.265625 4.40625 5.671875 
C 4.40625 1.6875 12.796875 -1 18.796875 -1 
C 30.703125 -1 41.296875 6.65625 41.296875 19.765625 
C 41.296875 30.59375 33.09375 34.5 27.203125 35.5 
L 27.09375 35.703125 
C 35.296875 39.640625 37.59375 43.78125 37.59375 49.125 
C 37.59375 52.140625 36.90625 54.5625 34.5 57.09375 
C 32.296875 59.296875 28.796875 61 23.59375 61 
C 8.90625 61 4.703125 51.34375 4.703125 48.015625 
C 4.703125 46.59375 5.703125 44.578125 8.09375 44.578125 
C 11.59375 44.578125 12 47.90625 12 49.828125 
C 12 56.28125 18.90625 57.484375 21.5 57.484375 
z
" id="Linux_Libertine_T-51"/>
       </defs>
       <use transform="scale(0.996264)" xlink:href="#Linux_Libertine_T-51"/>
       <use transform="translate(46.326292 0)scale(0.996264)" xlink:href="#Linux_Libertine_T-48"/>
       <use transform="translate(92.652583 0)scale(0.996264)" xlink:href="#Linux_Libertine_T-48"/>
      </g>
     </g>
    </g>
    <g id="xtick_4">
     <g id="line2d_10">
      <g>
       <use style="stroke:#000000;stroke-width:0.5;" x="233.05608" xlink:href="#maa0d976653" y="119.982182"/>
      </g>
     </g>
     <g id="text_4">
      <!-- $\mathdefault{400}$ -->
      <g transform="translate(226.802036 134.269852)scale(0.09 -0.09)">
       <defs>
        <path d="M 27.09375 50.71875 
L 27.09375 22 
L 8 22 
C 13.09375 30.171875 20.203125 41.34375 27.09375 50.71875 
z
M 43 22 
L 34.703125 22 
L 34.703125 51.125 
C 34.703125 56.109375 34.703125 60 34.90625 60.796875 
L 34.703125 61 
L 31.5 61 
C 30.796875 61 30.296875 60.390625 29.90625 59.890625 
C 23.59375 52.21875 12 35.75 2.796875 21.484375 
C 3.09375 19.984375 3.703125 17.296875 6.703125 17.296875 
L 27.09375 17.296875 
L 27.09375 8.15625 
C 27.09375 3.59375 23.296875 3.59375 19 3.296875 
C 18.40625 2.6875 18.40625 0.59375 19 0 
C 22.203125 0.09375 26.203125 0.1875 30.796875 0.1875 
C 34.703125 0.1875 38.5 0.09375 41.703125 0 
C 42.296875 0.59375 42.296875 2.6875 41.703125 3.296875 
C 36.796875 3.6875 34.703125 3.484375 34.703125 8.15625 
L 34.703125 17.296875 
L 41.59375 17.296875 
C 43 17.296875 44.5 19.1875 44.5 20.390625 
C 44.5 21.390625 44.09375 22 43 22 
z
" id="Linux_Libertine_T-52"/>
       </defs>
       <use transform="scale(0.996264)" xlink:href="#Linux_Libertine_T-52"/>
       <use transform="translate(46.326292 0)scale(0.996264)" xlink:href="#Linux_Libertine_T-48"/>
       <use transform="translate(92.652583 0)scale(0.996264)" xlink:href="#Linux_Libertine_T-48"/>
      </g>
     </g>
    </g>
    <g id="text_5">
     <!-- \#\,Pipes $\times$ \#\,Stages -->
     <g transform="translate(97.600816 145.601828)scale(0.09 -0.09)">
      <defs>
       <path d="M 27.90625 24.296875 
L 16.5 24.296875 
L 18.40625 36 
L 29.703125 36 
z
M 33.5 36 
L 43 36 
L 43.796875 41.296875 
L 34.203125 41.296875 
L 37.09375 59.1875 
L 33.296875 59.1875 
L 30.5 41.296875 
L 19.09375 41.296875 
L 22.09375 59.1875 
L 18.296875 59.1875 
L 15.40625 41.296875 
L 6.09375 41.296875 
L 5.296875 36 
L 14.59375 36 
L 12.796875 24.296875 
L 3.40625 24.296875 
L 2.59375 19 
L 11.90625 19 
L 9.09375 1.1875 
L 12.796875 1.1875 
L 15.703125 19 
L 26.90625 19 
L 24.203125 1.1875 
L 28 1.1875 
L 31 19 
L 40.40625 19 
L 41.09375 24.296875 
L 31.59375 24.296875 
z
" id="Linux_Libertine_T-35"/>
       <path d="M 18.90625 56.109375 
C 18.90625 59.046875 20.40625 62.59375 27.59375 62.59375 
C 34.5 62.59375 41.40625 60.265625 41.40625 47.390625 
C 41.40625 36.453125 36.203125 32 26.5 32 
C 24 32 20 32.1875 18.90625 32.5 
z
M 10.40625 52.96875 
L 10.40625 12.46875 
C 10.40625 4.09375 8.703125 3.59375 1.703125 3.296875 
C 1.09375 2.6875 1.09375 0.59375 1.703125 0 
C 6.203125 0.09375 11.09375 0.1875 14.703125 0.1875 
C 18.203125 0.1875 24.09375 0.09375 29.09375 0 
C 29.703125 0.59375 29.703125 2.6875 29.09375 3.296875 
C 21.296875 3.703125 18.90625 4.09375 18.90625 12.46875 
L 18.90625 29.59375 
C 21.09375 28.890625 23.5 28.59375 27 28.59375 
C 45.203125 28.59375 50.703125 40.609375 50.703125 49.21875 
C 50.703125 55.1875 46.796875 66 28.296875 66 
C 24.5 66 18.59375 65.296875 14.59375 65.296875 
C 10.90625 65.296875 5.703125 65.390625 1.703125 65.484375 
C 1.09375 64.890625 1.09375 62.796875 1.703125 62.1875 
C 8.703125 61.875 10.40625 61.375 10.40625 52.96875 
z
" id="Linux_Libertine_T-80"/>
       <path d="M 9 60.1875 
C 9 57.59375 11.40625 54.984375 13.796875 54.984375 
C 16.59375 54.984375 19 57.6875 19 59.796875 
C 19 62.1875 16.90625 65 14.203125 65 
C 11.796875 65 9 62.59375 9 60.1875 
z
M 18.09375 12.265625 
L 18.09375 31.875 
C 18.09375 36.8125 18.5 43.265625 18.5 43.265625 
C 18.5 43.6875 18 44 17.203125 44 
C 14.40625 42.859375 10.40625 41.921875 3.5 41 
C 3.296875 40.390625 3.5 38.796875 3.703125 38.1875 
C 9.203125 37.703125 10.203125 37.109375 10.203125 31.484375 
L 10.203125 12.265625 
C 10.203125 4.078125 9.09375 3.78125 3 3.296875 
C 2.40625 2.6875 2.40625 0.59375 3 0 
C 6.296875 0.09375 10.203125 0.1875 14.203125 0.1875 
C 18.203125 0.1875 22 0.09375 25.296875 0 
C 25.90625 0.59375 25.90625 2.6875 25.296875 3.296875 
C 19.203125 3.6875 18.09375 4.078125 18.09375 12.265625 
z
" id="Linux_Libertine_T-105"/>
       <path d="M 17.5 33.171875 
C 20.09375 36.375 24.703125 39.390625 27.59375 39.390625 
C 34 39.390625 39.5 32.171875 39.5 20.84375 
C 39.5 12.625 36.59375 2.390625 25.40625 2.390625 
C 23.59375 2.390625 20.09375 2.890625 18.296875 4.5 
C 16.296875 6.296875 15.90625 6.90625 15.90625 10.515625 
L 15.90625 28.765625 
C 15.90625 30.875 16.296875 31.765625 17.5 33.171875 
z
M 15.59375 36.890625 
C 15.5 39.890625 15.296875 42.484375 14.796875 43.484375 
C 14.59375 44 14.40625 44.296875 13.59375 44.296875 
C 10.796875 43.1875 8.203125 42.296875 1.296875 41.390625 
C 1.09375 40.796875 1.296875 39.1875 1.5 38.59375 
C 6.90625 38.09375 8 37.578125 8 31.765625 
L 8 -11.328125 
C 8 -19.875 6.90625 -20.390625 0.796875 -20.703125 
C 0.203125 -21.3125 0.203125 -23.40625 0.796875 -24 
C 4.296875 -23.90625 8 -23.8125 12 -23.8125 
C 16 -23.8125 20.796875 -23.90625 24.09375 -24 
C 24.703125 -23.40625 24.703125 -21.3125 24.09375 -20.703125 
C 17 -20.296875 15.90625 -19.875 15.90625 -11.328125 
L 15.90625 -0.203125 
C 15.90625 1.09375 16.296875 1 17.296875 0.5 
C 19.796875 -0.40625 22.796875 -1 26 -1 
C 31.59375 -1 36.59375 0.6875 40.703125 4.59375 
C 45.40625 9.203125 48.09375 15.421875 48.09375 23.546875 
C 48.09375 34.171875 40.59375 44 30.40625 44 
C 25.796875 44 20.703125 40.890625 16.703125 36.484375 
C 16.09375 35.875 15.703125 35.875 15.59375 36.890625 
z
" id="Linux_Libertine_T-112"/>
       <path d="M 12.40625 28.390625 
C 14.296875 39.78125 21.296875 40.6875 23.703125 40.6875 
C 27.5 40.6875 32 38.578125 32 30.109375 
C 32 29.203125 31.59375 28.6875 30.5 28.6875 
z
M 38.59375 9.34375 
C 34.90625 5.5 32 3.890625 26.203125 3.890625 
C 22.59375 3.890625 18.40625 6.015625 15.296875 11.15625 
C 13.296875 14.5 12.09375 19.140625 12.09375 25 
L 38.703125 24.796875 
C 39.90625 24.796875 40.59375 25.390625 40.59375 26.5 
C 40.59375 34.953125 37.59375 44 23.703125 44 
C 15 44 3.703125 35.65625 3.703125 20.34375 
C 3.703125 14.6875 5.09375 9.25 8.40625 5.40625 
C 11.796875 1.390625 16.5 -1 23.703125 -1 
C 31.296875 -1 36.703125 2.5 40.703125 7.734375 
C 40.40625 8.734375 39.796875 9.25 38.59375 9.34375 
z
" id="Linux_Libertine_T-101"/>
       <path d="M 4.796875 13.828125 
C 5.203125 8.90625 5.5 4.203125 5.5 0 
C 6.5 0.1875 7.5 0.296875 8 0.296875 
C 8.703125 0.296875 9.296875 0.296875 10 0.09375 
C 12.703125 -0.609375 15.40625 -1 19.09375 -1 
C 24.703125 -1 35 1.6875 35 11.609375 
C 35 18.4375 30.09375 22.453125 23.296875 24.953125 
C 17.296875 27.265625 13.296875 28.765625 13.296875 34.28125 
C 13.296875 38.390625 16.90625 40.6875 20.296875 40.6875 
C 22.5 40.6875 28.296875 39.890625 29.59375 31.375 
C 30.203125 30.765625 32.203125 30.875 32.796875 31.46875 
C 33.09375 35.078125 33.296875 38.78125 33.40625 42.09375 
C 30.296875 42.59375 25.5 44 20.296875 44 
C 12.90625 44 6.203125 39.1875 6.203125 32.765625 
C 6.203125 25.453125 9.5 22.34375 17.203125 19.140625 
C 25.5 15.734375 27.40625 13.625 27.40625 9.3125 
C 27.40625 4.390625 22.59375 2.296875 18.90625 2.296875 
C 15 2.296875 12.796875 3.59375 11.796875 4.703125 
C 9.59375 7 8.5 11.421875 7.90625 13.921875 
C 7.296875 14.53125 5.40625 14.421875 4.796875 13.828125 
z
" id="Linux_Libertine_T-115"/>
       <path d="M 58 3.5 
L 35.703125 25.6875 
L 58 48 
L 54 52 
L 31.796875 29.6875 
L 9.59375 52 
L 5.59375 48 
L 27.796875 25.6875 
L 5.59375 3.5 
L 9.59375 -0.515625 
L 31.796875 21.796875 
L 54 -0.515625 
z
" id="txsys-2"/>
       <path d="M 39.5 63.296875 
C 33.703125 64.09375 33.90625 66 24.09375 66 
C 14 66 5.09375 59.28125 5.09375 48.640625 
C 5.09375 38.109375 13.796875 33.296875 22.59375 29.875 
C 28.59375 27.578125 36 24.765625 36 14.9375 
C 36 6.8125 31.5 2.59375 23.5 2.59375 
C 14.203125 2.59375 8.203125 6.90625 6 16.84375 
C 4.703125 17.234375 3.703125 17.046875 2.703125 16.53125 
C 3.09375 8.8125 3.5 6.203125 4.703125 1.296875 
C 11 1.296875 13.796875 -1 22.703125 -1 
C 27.203125 -1 31.5 0.09375 35 2.296875 
C 40.796875 5.90625 44.40625 12.015625 44.40625 18.4375 
C 44.40625 29.078125 36.40625 33.796875 28.203125 36.90625 
C 22.203125 39.109375 12.203125 42.921875 12.203125 51.34375 
C 12.203125 56.96875 17.296875 62.59375 23.203125 62.59375 
C 32.90625 62.59375 36 56.375 38 49.75 
C 39.09375 49.546875 40.40625 49.640625 41.296875 50.34375 
C 40.90625 55.15625 40.5 57.96875 39.5 63.296875 
z
" id="Linux_Libertine_T-83"/>
       <path d="M 4.296875 43 
C 2.90625 43 2.5 41.796875 2.5 40.984375 
L 2.5 39.6875 
C 2.5 39.1875 2.59375 39.09375 3 39.09375 
L 8.90625 39.09375 
L 8.90625 8.90625 
C 8.90625 1.796875 12 -1 16.59375 -1 
C 21.203125 -1 26.203125 1.1875 30.09375 5.59375 
C 29.90625 6.59375 29.296875 7.203125 28.296875 7.296875 
C 25.703125 5.296875 22.703125 4.5 20.09375 4.5 
C 17.40625 4.5 16.796875 7.5 16.796875 13.71875 
L 16.796875 39.09375 
L 27.203125 39.09375 
C 28.203125 39.09375 29.59375 39.484375 29.59375 40.390625 
L 29.59375 42.390625 
C 29.59375 42.796875 29.296875 43 28.796875 43 
L 16.796875 43 
L 16.796875 46.890625 
C 16.796875 53.390625 17.203125 57.390625 17.203125 57.390625 
C 17.203125 58 16.90625 58.296875 16.40625 58.296875 
C 16 58.296875 15.09375 57.890625 14.203125 57.390625 
C 13.09375 56.796875 12.09375 56.296875 10.796875 56 
C 9.59375 55.59375 8.59375 55.296875 8.59375 54.59375 
C 8.59375 53.390625 8.90625 54.09375 8.90625 43 
z
" id="Linux_Libertine_T-116"/>
       <path d="M 29.296875 23.34375 
L 29.296875 10.109375 
C 29.296875 8.8125 28.703125 8.109375 27.90625 7.5 
C 25.296875 5.40625 21.90625 3.09375 19.09375 3.09375 
C 14.09375 3.09375 11.90625 7.109375 11.90625 10.21875 
C 11.90625 14.71875 14 19.328125 21.40625 21.234375 
z
M 29.296875 4.796875 
C 29.90625 1.6875 31 -1 36 -1 
C 39.796875 -1 43.40625 0.6875 45.5 2.6875 
C 45.296875 3.890625 44.90625 4.796875 43.796875 5.390625 
C 43.09375 4.796875 41.40625 3.796875 40.09375 3.796875 
C 37.203125 3.796875 37.09375 7.703125 37.09375 12.3125 
L 37.09375 27.046875 
C 37.09375 41.296875 29.296875 44 22 44 
C 13.796875 44 5.5 38.578125 5.5 32.875 
C 5.5 30.46875 6.703125 29.265625 9 29.265625 
C 11.90625 29.265625 13.703125 31.359375 13.703125 32.671875 
C 13.703125 33.375 13.59375 34.078125 13.40625 34.46875 
C 13.296875 34.78125 13.203125 35.375 13.203125 36.484375 
C 13.203125 39.59375 17.40625 40.6875 21.203125 40.6875 
C 24.59375 40.6875 29.296875 38.984375 29.296875 27.65625 
C 29.296875 26.953125 29 26.546875 28.703125 26.453125 
L 20.09375 24.34375 
C 10.5 21.9375 3.59375 16.625 3.59375 9.8125 
C 3.59375 1.59375 9.203125 -1 16.203125 -1 
C 19.703125 -1 22.703125 -0.203125 27.09375 3.1875 
L 29.09375 4.796875 
z
" id="Linux_Libertine_T-97"/>
       <path d="M 31.90625 28.09375 
C 31.90625 18.875 27.203125 17 23.5 17 
C 15.09375 17 14.203125 24.03125 14.203125 30.375 
C 14.203125 37.328125 16.703125 40.890625 22.203125 40.890625 
C 28.5 40.890625 31.90625 36.328125 31.90625 28.09375 
z
M 13.203125 -0.8125 
C 14.296875 -1.109375 15.90625 -1.3125 17.203125 -1.3125 
C 20.296875 -1.3125 23.09375 -1 24.5 -1 
C 29.5 -1 33.703125 -1.109375 36.59375 -2.75 
C 40.5 -4.984375 41.703125 -6.421875 41.703125 -9.078125 
C 41.703125 -16.421875 31.09375 -20.3125 22.09375 -20.3125 
C 18.5 -20.3125 10.09375 -17.34375 10.09375 -10.40625 
C 10.09375 -6.9375 10.296875 -4.375 13.203125 -0.8125 
z
M 44.40625 38.8125 
C 46.296875 38.8125 48.09375 40.59375 48.09375 42.59375 
C 48.09375 44.6875 46.203125 46.296875 43.5 46.296875 
C 40.90625 46.296875 36.09375 44.59375 33.5 41.1875 
C 32.296875 41.984375 29 44 23.09375 44 
C 14.203125 44 6 38.015625 6 28.890625 
C 6 23.53125 8.40625 20.46875 11.203125 17.78125 
C 8.40625 15.390625 6.796875 11.0625 6.796875 7.625 
C 6.796875 4 8.796875 1.1875 11.40625 -0.109375 
C 6 -3.359375 3.203125 -8.046875 3.203125 -12.4375 
C 3.203125 -21.3125 11.40625 -24 19.09375 -24 
C 32.59375 -24 47.203125 -17.453125 47.203125 -6.421875 
C 47.203125 -3.15625 45.703125 -0.609375 42.796875 1.796875 
C 38.90625 5 31.90625 5.09375 28.203125 5.09375 
C 26.40625 5.09375 23.90625 4.890625 21.5 4.59375 
C 20 4.5 19 4.390625 18.5 4.390625 
C 15.59375 4.390625 12.09375 5.796875 12.09375 10.15625 
C 12.09375 12.171875 12.703125 14.296875 13.90625 15.984375 
C 16.296875 14.59375 19.09375 13.890625 23 13.890625 
C 31.796875 13.890625 39.90625 19.375 39.90625 29.09375 
C 39.90625 33.75 38.5 36.421875 35.59375 39.40625 
C 36.296875 40.390625 38.296875 41.796875 39.59375 41.796875 
C 40.296875 41.796875 41 41.484375 41.59375 40.59375 
C 42 39.796875 43.296875 38.8125 44.40625 38.8125 
z
" id="Linux_Libertine_T-103"/>
      </defs>
      <use transform="scale(0.996264)" xlink:href="#Linux_Libertine_T-35"/>
      <use transform="translate(62.934239 0)scale(0.996264)" xlink:href="#Linux_Libertine_T-80"/>
      <use transform="translate(116.832158 0)scale(0.996264)" xlink:href="#Linux_Libertine_T-105"/>
      <use transform="translate(143.830904 0)scale(0.996264)" xlink:href="#Linux_Libertine_T-112"/>
      <use transform="translate(196.234382 0)scale(0.996264)" xlink:href="#Linux_Libertine_T-101"/>
      <use transform="translate(240.767334 0)scale(0.996264)" xlink:href="#Linux_Libertine_T-115"/>
      <use transform="translate(304.528261 0)scale(0.996264)" xlink:href="#txsys-2"/>
      <use transform="translate(392.797213 0)scale(0.996264)" xlink:href="#Linux_Libertine_T-35"/>
      <use transform="translate(455.731452 0)scale(0.996264)" xlink:href="#Linux_Libertine_T-83"/>
      <use transform="translate(504.050211 0)scale(0.996264)" xlink:href="#Linux_Libertine_T-116"/>
      <use transform="translate(535.532144 0)scale(0.996264)" xlink:href="#Linux_Libertine_T-97"/>
      <use transform="translate(581.061376 0)scale(0.996264)" xlink:href="#Linux_Libertine_T-103"/>
      <use transform="translate(630.874577 0)scale(0.996264)" xlink:href="#Linux_Libertine_T-101"/>
      <use transform="translate(675.407529 0)scale(0.996264)" xlink:href="#Linux_Libertine_T-115"/>
     </g>
    </g>
   </g>
   <g id="matplotlib.axis_2">
    <g id="ytick_1">
     <g id="line2d_11">
      <defs>
       <path d="M 0 0 
L -4 0 
" id="m1e9e347d46" style="stroke:#000000;stroke-width:0.5;"/>
      </defs>
      <g>
       <use style="stroke:#000000;stroke-width:0.5;" x="26.42904" xlink:href="#m1e9e347d46" y="94.978462"/>
      </g>
     </g>
     <g id="text_6">
      <!-- $\mathdefault{2}$ -->
      <g transform="translate(18.339889 97.063143)rotate(-90)scale(0.09 -0.09)">
       <use transform="scale(0.996264)" xlink:href="#Linux_Libertine_T-50"/>
      </g>
     </g>
    </g>
    <g id="ytick_2">
     <g id="line2d_12">
      <g>
       <use style="stroke:#000000;stroke-width:0.5;" x="26.42904" xlink:href="#m1e9e347d46" y="69.9721"/>
      </g>
     </g>
     <g id="text_7">
      <!-- $\mathdefault{4}$ -->
      <g transform="translate(18.339889 72.056781)rotate(-90)scale(0.09 -0.09)">
       <use transform="scale(0.996264)" xlink:href="#Linux_Libertine_T-52"/>
      </g>
     </g>
    </g>
    <g id="ytick_3">
     <g id="line2d_13">
      <g>
       <use style="stroke:#000000;stroke-width:0.5;" x="26.42904" xlink:href="#m1e9e347d46" y="44.965738"/>
      </g>
     </g>
     <g id="text_8">
      <!-- $\mathdefault{6}$ -->
      <g transform="translate(18.339889 47.050419)rotate(-90)scale(0.09 -0.09)">
       <defs>
        <path d="M 13.5 30.703125 
C 16.796875 32.890625 20.09375 33 21.796875 33 
C 31.59375 33 33.796875 23.421875 33.796875 18.4375 
C 33.796875 7.46875 29.59375 2.5 24.703125 2.5 
C 18.40625 2.5 12.703125 5.875 12.703125 22.921875 
C 12.703125 25.21875 12.90625 27.8125 13.5 30.703125 
z
M 14.40625 34.296875 
C 17.09375 43.359375 23.5 53.421875 36.796875 58.390625 
C 36.796875 59.59375 36.40625 60.484375 35.59375 61 
C 25.5 58 19.296875 53.8125 13.703125 47.34375 
C 7.5 40.171875 4.40625 31.09375 4.40625 23.21875 
C 4.40625 2.984375 15.90625 -1 23.59375 -1 
C 36.703125 -1 42.09375 11.65625 42.09375 20.234375 
C 42.09375 28.8125 37.5 36.5 23.90625 36.5 
C 21.296875 36.5 17.40625 35.6875 14.40625 34.296875 
z
" id="Linux_Libertine_T-54"/>
       </defs>
       <use transform="scale(0.996264)" xlink:href="#Linux_Libertine_T-54"/>
      </g>
     </g>
    </g>
    <g id="ytick_4">
     <g id="line2d_14">
      <g>
       <use style="stroke:#000000;stroke-width:0.5;" x="26.42904" xlink:href="#m1e9e347d46" y="19.959376"/>
      </g>
     </g>
     <g id="text_9">
      <!-- $\mathdefault{8}$ -->
      <g transform="translate(18.339889 22.044057)rotate(-90)scale(0.09 -0.09)">
       <defs>
        <path d="M 23.40625 57.484375 
C 29.90625 57.484375 32.296875 53.203125 32.296875 48.59375 
C 32.296875 43.1875 27 38.6875 24.296875 36.6875 
L 21.203125 38.59375 
C 14.90625 42.6875 14.203125 46 14.203125 49.09375 
C 14.203125 53.703125 17.40625 57.484375 23.40625 57.484375 
z
M 39.296875 48.5 
C 39.296875 55.703125 33.703125 61 23.90625 61 
C 13.703125 61 7.09375 54.890625 7.09375 47.1875 
C 7.09375 41.59375 9.796875 37.5 15.90625 33.6875 
L 18.5 32.09375 
C 15.59375 30.59375 12.90625 28.796875 10.40625 26.59375 
C 6.296875 23 4.59375 18.5 4.59375 14.59375 
C 4.59375 4.390625 11.796875 -1 22.40625 -1 
C 35.5 -1 41.90625 8.59375 41.90625 16.1875 
C 41.90625 22 39.40625 27.09375 34.09375 30.296875 
L 27 34.59375 
C 31.703125 36.890625 39.296875 42.09375 39.296875 48.5 
z
M 22.59375 2.5 
C 18.09375 2.5 11.296875 5.59375 11.296875 14.59375 
C 11.296875 17.59375 12.59375 24.59375 21.203125 30.296875 
L 25.90625 27.5 
C 32.09375 23.6875 34.59375 19 34.59375 14.1875 
C 34.59375 4.1875 27.09375 2.5 22.59375 2.5 
z
" id="Linux_Libertine_T-56"/>
       </defs>
       <use transform="scale(0.996264)" xlink:href="#Linux_Libertine_T-56"/>
      </g>
     </g>
    </g>
    <g id="text_10">
     <!-- Execution Time (in s) -->
     <g transform="translate(6.963069 99.947936)rotate(-90)scale(0.09 -0.09)">
      <defs>
       <path d="M 28.09375 36.796875 
L 19 36.796875 
L 19 54.640625 
C 19 59.015625 20.203125 60.984375 25.59375 60.984375 
L 33.09375 60.984375 
C 40.59375 60.984375 42.203125 57.03125 44.40625 50.1875 
C 45.59375 49.984375 46.703125 50.1875 47.703125 50.671875 
C 47.203125 54.75 45.703125 64.296875 45.5 65.09375 
C 45.5 65.296875 45.40625 65.390625 45.09375 65.390625 
C 43.40625 65.09375 42.59375 65 40.203125 65 
L 14.703125 65 
C 11.703125 64.796875 5.796875 64.890625 1.796875 65 
C 1.203125 64.390625 1.203125 62.296875 1.796875 61.6875 
C 8.796875 61.390625 10.5 60.90625 10.5 52.734375 
L 10.5 12.546875 
C 10.5 4.109375 8.796875 3.59375 1.796875 3.296875 
C 1.203125 2.6875 1.203125 0.59375 1.796875 0 
C 5.5 -0.109375 11.5 0 14.796875 0 
L 36.296875 0 
C 41.09375 0.1875 49.09375 0 49.09375 0 
C 50.5 5.015625 52 11.734375 52.796875 16.921875 
C 51.796875 17.53125 50.59375 17.734375 49.296875 17.4375 
C 47.296875 9.9375 43.796875 3.890625 36.203125 3.890625 
L 24.59375 3.890625 
C 20.40625 3.890625 19 5.53125 19 10.34375 
L 19 33 
L 28.09375 33 
C 36.59375 33 36.90625 30.640625 37.203125 26.03125 
C 37.796875 25.40625 39.90625 25.40625 40.5 26.03125 
C 40.40625 28.6875 40.296875 31.5625 40.296875 35 
C 40.296875 37.78125 40.40625 41.15625 40.5 43.53125 
C 39.90625 44.125 37.796875 44.125 37.203125 43.53125 
C 36.90625 38.078125 36.59375 36.796875 28.09375 36.796875 
z
" id="Linux_Libertine_T-69"/>
       <path d="M 18.203125 35.71875 
C 15.90625 39.09375 16.59375 39.203125 21.09375 39.6875 
C 21.703125 40.296875 21.703125 42.390625 21.09375 43 
C 18.40625 42.890625 14 42.796875 11 42.796875 
C 8 42.796875 5 42.890625 2.40625 43 
C 1.796875 42.390625 1.796875 40.296875 2.40625 39.6875 
C 5.796875 39.390625 8.59375 37.703125 11.40625 33.640625 
L 20.09375 21.046875 
C 20.59375 20.359375 20.59375 20.046875 20.203125 19.5625 
L 11.796875 8.84375 
C 7.796875 3.78125 5.59375 3.484375 2.09375 3.296875 
C 1.5 2.6875 1.5 0.59375 2.09375 0 
C 4.09375 0.09375 6.296875 0.1875 9.296875 0.1875 
C 12.296875 0.1875 15.09375 0.09375 17.703125 0 
C 18.296875 0.59375 18.296875 2.6875 17.703125 3.296875 
C 14.09375 3.6875 13.296875 4.078125 15.5 7.265625 
L 21.796875 16.28125 
C 22.59375 17.46875 23 17.375 23.59375 16.484375 
L 29.40625 8.546875 
C 32.90625 3.78125 31.296875 3.59375 28.09375 3.296875 
C 27.5 2.6875 27.5 0.59375 28.09375 0 
C 31.09375 0.09375 34.40625 0.1875 38 0.1875 
C 41.796875 0.1875 44.5 0.09375 46.90625 0 
C 47.5 0.59375 47.5 2.6875 46.90625 3.296875 
C 42.40625 3.59375 40.90625 3.890625 36.90625 9.546875 
L 27.90625 22.140625 
C 27.5 22.734375 27.40625 23.03125 27.90625 23.625 
L 36.296875 34.234375 
C 40 38.90625 42.40625 39.390625 46 39.6875 
C 46.59375 40.296875 46.59375 42.390625 46 43 
C 44 42.890625 41.703125 42.796875 38.703125 42.796875 
C 35.703125 42.796875 32.90625 42.890625 30.296875 43 
C 29.703125 42.390625 29.703125 40.296875 30.296875 39.6875 
C 34 39.296875 35.09375 39 32.703125 35.625 
L 26.203125 26.59375 
C 25.5 25.609375 25.09375 25.703125 24.296875 26.796875 
z
" id="Linux_Libertine_T-120"/>
       <path d="M 39.796875 9.109375 
C 39.40625 10.015625 38.59375 10.40625 37.703125 10.515625 
C 34.296875 6.09375 30 3.890625 25.703125 3.890625 
C 18.40625 3.890625 12.296875 11.3125 12.296875 23.046875 
C 12.296875 34.078125 17.09375 40.6875 23.703125 40.6875 
C 29.59375 40.6875 30.40625 37.1875 30.796875 33.671875 
C 31.09375 30.96875 32.5 30.0625 34.59375 30.0625 
C 36.703125 30.0625 39.5 31.359375 39.5 34.46875 
C 39.5 39.984375 33.796875 44 24.203125 44 
C 14.296875 44 3.703125 35.078125 3.703125 20.84375 
C 3.703125 7.90625 10.90625 -1 23.5 -1 
C 29.5 -1 34.796875 0.890625 39.796875 9.109375 
z
" id="Linux_Libertine_T-99"/>
       <path d="M 21.703125 -1 
C 25.59375 -1 30.296875 1 35.203125 4.984375 
C 35.703125 5.390625 36.59375 5.59375 36.703125 4.890625 
C 37 2.390625 37.796875 -1 37.796875 -1 
C 38.59375 -1.3125 39.09375 -1.203125 39.703125 -1 
C 41.90625 0.796875 45.40625 2.296875 51.5 3 
C 52.09375 3.59375 52.09375 5.09375 51.5 5.6875 
C 45.09375 6.1875 44.203125 8.078125 44.203125 12.96875 
L 44.203125 32.109375 
C 44.203125 35.109375 44.59375 42.390625 44.59375 42.390625 
C 44.59375 42.6875 44.296875 43 43.796875 43 
C 43.296875 42.890625 41.796875 42.796875 40.296875 42.796875 
C 37.09375 42.796875 33.5 42.890625 30.09375 43 
C 29.5 42.390625 29.5 40.296875 30.09375 39.6875 
C 35 39.390625 36.296875 38.1875 36.296875 31.609375 
L 36.296875 12.375 
C 36.296875 10.46875 36.09375 9.671875 34.703125 8.484375 
C 31 5.28125 27.203125 3.6875 24.703125 3.6875 
C 21.703125 3.6875 16.703125 5.09375 16.703125 13.96875 
L 16.703125 32.109375 
C 16.703125 35.109375 17.09375 42.390625 17.09375 42.390625 
C 17.09375 42.6875 16.796875 43 16.296875 43 
C 15.796875 42.890625 14.296875 42.796875 12.796875 42.796875 
C 9.59375 42.796875 6 42.890625 2.59375 43 
C 2 42.390625 2 40.296875 2.59375 39.6875 
C 7.40625 39.296875 8.796875 38.1875 8.796875 31.71875 
L 8.796875 12.5625 
C 8.796875 5.6875 11.796875 -1 21.703125 -1 
z
" id="Linux_Libertine_T-117"/>
       <path d="M 4.09375 20.546875 
C 4.09375 10.3125 10.90625 -1 25.09375 -1 
C 31.5 -1 36.40625 1.296875 39.796875 4.59375 
C 44.296875 9.015625 46.296875 15.328125 46.296875 21.4375 
C 46.296875 31.875 40.59375 44 25.296875 44 
C 18.703125 44 13.296875 41.296875 9.59375 36.984375 
C 6 32.671875 4.09375 26.859375 4.09375 20.546875 
z
M 23.796875 40.484375 
C 32.40625 40.484375 37.703125 32.671875 37.703125 18.234375 
C 37.703125 5.59375 31.203125 2.5 26.5 2.5 
C 16.09375 2.5 12.703125 15.125 12.703125 22.84375 
C 12.703125 31.5625 14.796875 40.484375 23.796875 40.484375 
z
" id="Linux_Libertine_T-111"/>
       <path d="M 18.40625 35.90625 
C 17.796875 35.203125 17.203125 35 17.203125 35.90625 
C 17.09375 38.59375 16.90625 42.484375 16.40625 43.484375 
C 16.203125 44 16 44.296875 15.203125 44.296875 
C 12.40625 43.1875 9.796875 42.296875 2.90625 41.390625 
C 2.703125 40.796875 2.90625 39.1875 3.09375 38.59375 
C 8.5 38.09375 9.59375 37.59375 9.59375 31.8125 
L 9.59375 12.359375 
C 9.59375 4.1875 8.59375 3.796875 2.59375 3.296875 
C 2 2.6875 2 0.59375 2.59375 0 
C 5.59375 0.09375 9.59375 0.1875 13.59375 0.1875 
C 17.59375 0.1875 20.59375 0.09375 23.59375 0 
C 24.203125 0.59375 24.203125 2.6875 23.59375 3.296875 
C 18.5 3.796875 17.5 4.1875 17.5 12.359375 
L 17.5 28.71875 
C 17.5 30.8125 18.40625 32.015625 19.203125 32.90625 
C 23 36.59375 27.5 38.796875 31.40625 38.796875 
C 33.40625 38.796875 35.5 37.5 36.703125 35.203125 
C 37.703125 33.203125 37.90625 30.515625 37.90625 27.515625 
L 37.90625 12.359375 
C 37.90625 4.1875 36.90625 3.796875 31.703125 3.296875 
C 31.203125 2.6875 31.203125 0.59375 31.703125 0 
C 34.703125 0.09375 37.90625 0.1875 41.90625 0.1875 
C 45.90625 0.1875 49.5 0.09375 52.5 0 
C 53 0.59375 53 2.6875 52.5 3.296875 
C 46.90625 3.796875 45.796875 4.1875 45.796875 12.359375 
L 45.796875 27.21875 
C 45.796875 32.703125 45.40625 37.5 43.09375 40.59375 
C 41.40625 42.796875 38.296875 44 34.796875 44 
C 29.90625 44 24.296875 42.6875 18.40625 35.90625 
z
" id="Linux_Libertine_T-110"/>
       <path d="M 35 12.4375 
L 35 50.84375 
C 35 57.28125 36 61.09375 39.59375 61.09375 
L 41.796875 61.09375 
C 49.296875 61.09375 54 58.484375 55.703125 50.734375 
C 56.796875 50.734375 58.203125 50.84375 59.09375 51.25 
C 58.40625 55.859375 57.90625 61 57.796875 65.5 
C 57.796875 65.59375 57.59375 65.796875 57.5 65.796875 
C 54.09375 65.5 43 65 35.09375 65 
L 26.5 65 
C 18.796875 65 7 65.5 3.203125 65.796875 
C 3 65.796875 2.796875 65.59375 2.796875 65.5 
C 2.40625 61 1.40625 55.765625 0.296875 50.9375 
C 1.296875 50.546875 2.5 50.4375 3.703125 50.4375 
C 5.703125 58.484375 10.296875 61.09375 16.90625 61.09375 
L 21.796875 61.09375 
C 25.5 61.09375 26.5 57.28125 26.5 51.140625 
L 26.5 12.4375 
C 26.5 4.09375 24.796875 3.59375 16.796875 3.296875 
C 16.203125 2.6875 16.203125 0.59375 16.796875 0 
C 21.703125 0.09375 26.796875 0.1875 30.796875 0.1875 
C 34.59375 0.1875 39.703125 0.09375 44.703125 0 
C 45.296875 0.59375 45.296875 2.6875 44.703125 3.296875 
C 36.703125 3.59375 35 4.09375 35 12.4375 
z
" id="Linux_Libertine_T-84"/>
       <path d="M 17 35.90625 
C 16.90625 38.890625 16.703125 42.484375 16.203125 43.484375 
C 16 44 15.796875 44.296875 15 44.296875 
C 12.203125 43.1875 9.59375 42.296875 2.703125 41.390625 
C 2.5 40.796875 2.703125 39.1875 2.90625 38.59375 
C 8.296875 38.09375 9.40625 37.59375 9.40625 31.8125 
L 9.40625 12.359375 
C 9.40625 4.1875 8.09375 3.6875 2.59375 3.296875 
C 2 2.6875 2 0.59375 2.59375 0 
C 5.59375 0.09375 9.40625 0.1875 13.40625 0.1875 
C 17.40625 0.1875 20.5 0.09375 23.5 0 
C 24.09375 0.59375 24.09375 2.6875 23.5 3.296875 
C 18.40625 3.796875 17.296875 4.1875 17.296875 12.359375 
L 17.296875 28.71875 
C 17.296875 30.8125 18.203125 32.015625 19 32.90625 
C 23 36.796875 26.703125 38.796875 29.796875 38.796875 
C 33.59375 38.796875 36.40625 36.390625 36.40625 29.71875 
L 36.40625 12.359375 
C 36.40625 4.1875 35.59375 3.6875 30.203125 3.296875 
C 29.703125 2.6875 29.703125 0.59375 30.203125 0 
C 32.703125 0.09375 36.40625 0.1875 40.40625 0.1875 
C 44.40625 0.1875 47.703125 0.09375 50.203125 0 
C 50.703125 0.59375 50.703125 2.6875 50.203125 3.296875 
C 45.203125 3.6875 44.296875 4.1875 44.296875 12.359375 
L 44.296875 28.21875 
C 44.296875 29.625 44.296875 31.015625 44.203125 32.203125 
C 49 37.5 53.5 38.796875 57.40625 38.796875 
C 61.203125 38.796875 63.40625 36.59375 63.40625 29.921875 
L 63.40625 12.359375 
C 63.40625 4.1875 62.40625 3.6875 57.203125 3.296875 
C 56.703125 2.6875 56.703125 0.59375 57.203125 0 
C 59.703125 0.09375 63.40625 0.1875 67.40625 0.1875 
C 71.40625 0.1875 74.90625 0.09375 77.703125 0 
C 78.203125 0.59375 78.203125 2.6875 77.703125 3.296875 
C 72.203125 3.6875 71.296875 4.1875 71.296875 12.359375 
L 71.296875 28.125 
C 71.296875 37 69.796875 44 61 44 
C 55.90625 44 49.703125 42.09375 44.5 36.59375 
C 44.203125 36.296875 43.59375 35.796875 43.40625 36.703125 
C 42.5 40.796875 38.59375 44 33.40625 44 
C 27.59375 44 22.40625 40.59375 18.203125 35.90625 
C 17.703125 35.40625 17.09375 34.703125 17 35.90625 
z
" id="Linux_Libertine_T-109"/>
       <path d="M 4.40625 25.1875 
C 4.40625 20.6875 4.796875 -2.40625 25.59375 -20.40625 
C 26.59375 -20.203125 27.40625 -19.515625 27.703125 -18.703125 
C 24.40625 -14.90625 12.703125 -1.109375 12.703125 25.1875 
C 12.703125 51.5 24.5 65.296875 27.703125 68.890625 
C 27.40625 69.890625 26.703125 70.59375 25.59375 70.703125 
C 13.703125 60.5 4.40625 43.796875 4.40625 25.1875 
z
" id="Linux_Libertine_T-40"/>
       <path d="M 25.40625 25.1875 
C 25.40625 29.6875 25 52.796875 4.203125 70.796875 
C 3.203125 70.59375 2.40625 69.890625 2.09375 69.09375 
C 5.40625 65.296875 17.09375 51.5 17.09375 25.1875 
C 17.09375 -1.109375 5.296875 -14.90625 2.09375 -18.515625 
C 2.40625 -19.515625 3.09375 -20.203125 4.203125 -20.3125 
C 16.09375 -10.109375 25.40625 6.59375 25.40625 25.1875 
z
" id="Linux_Libertine_T-41"/>
      </defs>
      <use transform="scale(0.996264)" xlink:href="#Linux_Libertine_T-69"/>
      <use transform="translate(55.491918 0)scale(0.996264)" xlink:href="#Linux_Libertine_T-120"/>
      <use transform="translate(104.308824 0)scale(0.996264)" xlink:href="#Linux_Libertine_T-101"/>
      <use transform="translate(149.539158 0)scale(0.996264)" xlink:href="#Linux_Libertine_T-99"/>
      <use transform="translate(192.179291 0)scale(0.996264)" xlink:href="#Linux_Libertine_T-117"/>
      <use transform="translate(245.080916 0)scale(0.996264)" xlink:href="#Linux_Libertine_T-116"/>
      <use transform="translate(276.56285 0)scale(0.996264)" xlink:href="#Linux_Libertine_T-105"/>
      <use transform="translate(303.561595 0)scale(0.996264)" xlink:href="#Linux_Libertine_T-111"/>
      <use transform="translate(353.773265 0)scale(0.996264)" xlink:href="#Linux_Libertine_T-110"/>
      <use transform="translate(432.677356 0)scale(0.996264)" xlink:href="#Linux_Libertine_T-84"/>
      <use transform="translate(492.15433 0)scale(0.996264)" xlink:href="#Linux_Libertine_T-105"/>
      <use transform="translate(519.153075 0)scale(0.996264)" xlink:href="#Linux_Libertine_T-109"/>
      <use transform="translate(597.857917 0)scale(0.996264)" xlink:href="#Linux_Libertine_T-101"/>
      <use transform="translate(667.29747 0)scale(0.996264)" xlink:href="#Linux_Libertine_T-40"/>
      <use transform="translate(696.986171 0)scale(0.996264)" xlink:href="#Linux_Libertine_T-105"/>
      <use transform="translate(723.984916 0)scale(0.996264)" xlink:href="#Linux_Libertine_T-110"/>
      <use transform="translate(802.889008 0)scale(0.996264)" xlink:href="#Linux_Libertine_T-115"/>
      <use transform="translate(841.743334 0)scale(0.996264)" xlink:href="#Linux_Libertine_T-41"/>
     </g>
    </g>
   </g>
   <g id="legend_1">
    <g id="patch_7">
     <path d="M 26.42904 31.763229 
L 105.002433 31.763229 
L 105.002433 1.484928 
L 26.42904 1.484928 
z
" style="fill:#ecf4f3;stroke:#000000;stroke-linejoin:miter;"/>
    </g>
    <g id="line2d_15">
     <path d="M 33.62904 9.134928 
L 54.77904 9.134928 
" style="fill:none;stroke:#003359;stroke-linecap:square;stroke-linejoin:miter;stroke-width:1.5;"/>
    </g>
    <g id="line2d_16"/>
    <g id="text_11">
     <!-- GNURadio -->
     <g transform="translate(60.62904 12.284928)scale(0.09 -0.09)">
      <defs>
       <path d="M 37.703125 66 
C 21 66 3.703125 52.796875 3.703125 30.59375 
C 3.703125 12.65625 16.09375 -1 35.203125 -1 
C 47 -1 56.296875 1.5 63.09375 7.265625 
C 62 8.171875 61.5 8.96875 61.5 10.0625 
L 61.5 21.609375 
C 61.5 25.09375 63.203125 26.09375 66.09375 26.390625 
C 66.703125 26.984375 66.703125 29.390625 66.09375 30 
C 63.703125 29.890625 61.203125 29.796875 57.203125 29.796875 
C 53.90625 29.796875 49.203125 29.890625 44.796875 30 
C 44.203125 29.390625 44.203125 26.984375 44.796875 26.390625 
C 50.296875 26 53 25.59375 53 21.609375 
L 53 6.375 
C 49.59375 3.1875 42.90625 2.59375 37.5 2.59375 
C 21.703125 2.59375 13.296875 19.421875 13.296875 32.609375 
C 13.296875 50.28125 24.703125 62.390625 36.296875 62.390625 
C 50.796875 62.390625 54.90625 54.015625 57.5 45.328125 
C 58.59375 45.234375 59.703125 45.4375 60.796875 45.9375 
C 60.59375 50.171875 60.09375 54.21875 58.5 61.484375 
C 52.5 62.484375 48.796875 66 37.703125 66 
z
" id="Linux_Libertine_T-71"/>
       <path d="M 55.59375 51.46875 
L 55.59375 18.71875 
C 55.59375 16.8125 55.59375 15.71875 54.90625 15.71875 
C 54.5 15.71875 53 17.515625 50.09375 21.21875 
L 15.796875 64.796875 
L 2.296875 65 
C 1.703125 64.390625 1.703125 62.296875 2.296875 61.6875 
C 6.59375 61.390625 9.59375 57.890625 10.203125 55.28125 
L 10.203125 13.515625 
C 10.203125 4.59375 8.5 4 1.5 3.296875 
C 0.90625 2.6875 0.90625 0.59375 1.5 0 
C 5.796875 0.09375 10.296875 0.1875 12.703125 0.1875 
C 15 0.1875 19.59375 0.09375 23.796875 0 
C 24.40625 0.59375 24.40625 2.6875 23.796875 3.296875 
C 16.796875 4 15.09375 4.390625 15.09375 13.515625 
L 15.09375 44.15625 
C 15.09375 47.5625 15.09375 49.078125 15.90625 49.078125 
C 16.5 49.078125 17.59375 47.96875 19.296875 45.765625 
L 54.203125 1.59375 
C 55.296875 -0.109375 56.59375 -1 58.203125 -1 
C 59.59375 -1 60.5 0.203125 60.5 2.109375 
L 60.5 51.4375 
C 60.5 60.390625 62.203125 60.984375 69.203125 61.6875 
C 69.796875 62.296875 69.796875 64.390625 69.203125 65 
C 65.09375 64.890625 60.40625 64.796875 58 64.796875 
C 55.90625 64.796875 51.296875 64.890625 46.90625 65 
C 46.296875 64.390625 46.296875 62.296875 46.90625 61.6875 
C 53.90625 61 55.59375 60.59375 55.59375 51.46875 
z
" id="Linux_Libertine_T-78"/>
       <path d="M 17.203125 52.546875 
C 17.203125 60.890625 18.703125 61.390625 26.40625 61.6875 
C 27 62.296875 27 64.390625 26.40625 65 
C 21.703125 64.890625 16.796875 64.796875 12.90625 64.796875 
C 9 64.796875 4.90625 64.890625 1 65 
C 0.40625 64.390625 0.40625 62.296875 1 61.6875 
C 7 61.390625 8.703125 60.890625 8.703125 52.546875 
L 8.703125 23.390625 
C 8.703125 2.890625 21.90625 -1 32.09375 -1 
C 52.59375 -1 57.5 11.734375 57.5 29.625 
L 57.5 52.546875 
C 57.5 60.578125 59.203125 60.984375 65.203125 61.6875 
C 65.796875 62.296875 65.796875 64.390625 65.203125 65 
C 61.40625 64.890625 57.296875 64.796875 55 64.796875 
C 52.90625 64.796875 48 64.890625 43.40625 65 
C 42.796875 64.390625 42.796875 62.296875 43.40625 61.6875 
C 50.90625 60.984375 52.59375 60.6875 52.59375 52.546875 
L 52.59375 27.8125 
C 52.59375 16.5625 51.09375 3.09375 34.203125 3.09375 
C 29.40625 3.09375 25.296875 4.90625 22.296875 7.8125 
C 17.40625 12.546875 17.203125 20.171875 17.203125 26.71875 
z
" id="Linux_Libertine_T-85"/>
       <path d="M 27.203125 62.59375 
C 33.296875 62.59375 40.5 60.375 40.5 48.453125 
C 40.5 35.828125 33.40625 33 23.703125 33 
L 18.90625 33 
L 18.90625 56.125 
C 18.90625 59.0625 20.09375 62.59375 27.203125 62.59375 
z
M 18.90625 12.6875 
L 18.90625 29.59375 
C 27.296875 29.59375 29.203125 28.09375 30.59375 25.796875 
L 41.296875 8.390625 
C 44.203125 3.21875 48.5 -1 54.5 -1 
C 56 -1 57.703125 -0.8125 58.703125 -0.3125 
C 59.09375 0.390625 59 1.296875 58.59375 2.09375 
C 54.09375 2.09375 51.59375 5.5625 49 9.9375 
L 36.40625 31.296875 
C 40.703125 32.6875 49.703125 37.9375 49.703125 48.546875 
C 49.703125 53.609375 48 57.75 44.40625 61.171875 
C 39.59375 65.6875 33.40625 66 27.09375 66 
C 22.40625 66 18.203125 65.296875 14.59375 65.296875 
C 11.09375 65.296875 6.40625 65.390625 1.703125 65.484375 
C 1.09375 64.890625 1.09375 62.796875 1.703125 62.1875 
C 8.703125 61.890625 10.40625 61.375 10.40625 53 
L 10.40625 12.375 
C 10.40625 4.109375 8.703125 3.59375 1.703125 3.296875 
C 1.09375 2.6875 1.09375 0.59375 1.703125 0 
C 6.203125 0.09375 10.90625 0.1875 14.703125 0.1875 
C 18.5 0.1875 23.203125 0.09375 27.59375 0 
C 28.203125 0.59375 28.203125 2.6875 27.59375 3.296875 
C 20.59375 3.59375 18.90625 4.109375 18.90625 12.5 
z
" id="Linux_Libertine_T-82"/>
       <path d="M 34.5 12.421875 
C 34.5 10.515625 34.296875 9.703125 32.90625 8.5 
C 29.203125 5.296875 26 3.6875 23.5 3.6875 
C 18.09375 3.6875 12.5 9.609375 12.5 22.140625 
C 12.5 29.359375 13.90625 33.375 15.40625 35.484375 
C 18.5 40.1875 22.703125 40.484375 24.703125 40.484375 
C 28.296875 40.484375 30.796875 39.1875 32.796875 36.875 
C 34.203125 35.28125 34.5 34.578125 34.5 31.46875 
z
M 33.40625 5 
C 33.90625 5.390625 34.796875 5.59375 34.90625 4.890625 
C 35.203125 2.5 36 -1 36 -1 
C 36.796875 -1.3125 37.296875 -1.203125 37.90625 -1 
C 40.09375 0.796875 43.59375 2.296875 49.703125 3 
C 50.296875 3.59375 50.296875 5.09375 49.703125 5.6875 
C 43.296875 6.1875 42.40625 8.09375 42.40625 13.015625 
L 42.40625 58.25 
C 42.40625 64.6875 42.796875 68.875 42.796875 68.875 
C 42.796875 69.65625 42.40625 70 41.5 70 
C 39 68.875 31.5 67.328125 27.5 67 
C 27.296875 66.1875 27.5 64.59375 28.09375 64 
C 33.296875 63.703125 34.5 64.1875 34.5 55.875 
L 34.5 43.1875 
C 34.5 42.484375 34.296875 42.296875 33.59375 42.296875 
C 33.203125 42.296875 29.09375 44 25.796875 44 
C 19.203125 44 14.796875 41.796875 10.796875 37.984375 
C 6.5 33.671875 3.90625 27.75 3.90625 20.328125 
C 3.90625 8 10.09375 -1 20.90625 -1 
C 24.796875 -1 28.5 1 33.40625 5 
z
" id="Linux_Libertine_T-100"/>
      </defs>
      <use transform="scale(0.996264)" xlink:href="#Linux_Libertine_T-71"/>
      <use transform="translate(68.244115 0)scale(0.996264)" xlink:href="#Linux_Libertine_T-78"/>
      <use transform="translate(140.274036 0)scale(0.996264)" xlink:href="#Linux_Libertine_T-85"/>
      <use transform="translate(206.127109 0)scale(0.996264)" xlink:href="#Linux_Libertine_T-82"/>
      <use transform="translate(264.607788 0)scale(0.996264)" xlink:href="#Linux_Libertine_T-97"/>
      <use transform="translate(310.13702 0)scale(0.996264)" xlink:href="#Linux_Libertine_T-100"/>
      <use transform="translate(360.547924 0)scale(0.996264)" xlink:href="#Linux_Libertine_T-105"/>
      <use transform="translate(387.546669 0)scale(0.996264)" xlink:href="#Linux_Libertine_T-111"/>
     </g>
    </g>
    <g id="line2d_17">
     <path d="M 33.62904 22.024079 
L 54.77904 22.024079 
" style="fill:none;stroke:#ff7900;stroke-linecap:square;stroke-linejoin:miter;stroke-width:1.5;"/>
    </g>
    <g id="line2d_18"/>
    <g id="text_12">
     <!-- FutureSDR -->
     <g transform="translate(60.62904 25.174079)scale(0.09 -0.09)">
      <defs>
       <path d="M 28.296875 33 
C 36.796875 33 37.09375 30.65625 37.40625 26.078125 
C 38 25.46875 40.09375 25.46875 40.703125 26.078125 
C 40.59375 28.625 40.5 31.5625 40.5 35 
C 40.5 38.375 40.59375 40.953125 40.703125 43.53125 
C 40.09375 44.125 38 44.125 37.40625 43.53125 
C 37.09375 38.078125 36.796875 36.796875 28.296875 36.796875 
L 19 36.796875 
L 19 54.640625 
C 19 60 20.203125 60.984375 24.59375 60.984375 
L 29.09375 60.984375 
C 39.703125 60.984375 42.203125 57.03125 44.40625 50.1875 
C 45.59375 50.1875 46.703125 50.375 47.5 50.671875 
C 47 54.75 45.5 64.296875 45.296875 65.09375 
C 45.296875 65.296875 45.203125 65.390625 44.90625 65.390625 
C 43.203125 65.09375 42.703125 65 40.203125 65 
L 14.703125 65 
C 11.5 64.796875 5.796875 64.890625 1.796875 65 
C 1.203125 64.390625 1.203125 62.296875 1.796875 61.6875 
C 8.796875 61.390625 10.5 60.90625 10.5 52.734375 
L 10.5 12.546875 
C 10.5 4.109375 8.796875 3.59375 1.796875 3.296875 
C 1.203125 2.6875 1.203125 0.59375 1.796875 0 
C 5.296875 0.09375 10.296875 0.1875 14.796875 0.1875 
C 19.296875 0.1875 24.203125 0.09375 27.703125 0 
C 28.296875 0.59375 28.296875 2.6875 27.703125 3.296875 
C 20.703125 3.59375 19 4.109375 19 12.546875 
L 19 33 
z
" id="Linux_Libertine_T-70"/>
       <path d="M 17.59375 35.90625 
C 17.40625 39.890625 17.296875 42.484375 16.796875 43.484375 
C 16.59375 44 16.40625 44.296875 15.59375 44.296875 
C 12.796875 43.1875 10.203125 42.296875 3.296875 41.390625 
C 3.09375 40.796875 3.296875 39.1875 3.5 38.59375 
C 8.90625 38.09375 10 37.59375 10 31.8125 
L 10 12.359375 
C 10 4.09375 8.796875 3.6875 2.59375 3.296875 
C 2 2.6875 2 0.59375 2.59375 0 
C 6.09375 0.09375 10 0.1875 14 0.1875 
C 18 0.1875 22.59375 0.09375 26.09375 0 
C 26.703125 0.59375 26.703125 2.6875 26.09375 3.296875 
C 19.09375 3.796875 17.90625 4.09375 17.90625 12.359375 
L 17.90625 26.234375 
C 17.90625 28.8125 19.09375 31.109375 20.296875 32.90625 
C 21.40625 34.5 23.703125 37.796875 24.90625 37.796875 
C 25.796875 37.796875 26.703125 37.59375 27.5 36.5 
C 28.203125 35.5 29.40625 34.203125 31.09375 34.203125 
C 33.5 34.203125 35.796875 36.703125 35.796875 39.1875 
C 35.796875 41.09375 34 44 29.796875 44 
C 25.09375 44 21 39.59375 18.703125 35.703125 
C 18.09375 34.609375 17.59375 35.40625 17.59375 35.90625 
z
" id="Linux_Libertine_T-114"/>
       <path d="M 19.09375 8.59375 
L 19.09375 56.6875 
C 19.09375 60.1875 22.59375 61.59375 27.5 61.59375 
C 49.09375 61.59375 56.203125 44.0625 56.203125 28.640625 
C 56.203125 8.40625 44.09375 3.390625 30 3.390625 
C 20.203125 3.390625 19.09375 5.390625 19.09375 8.59375 
z
M 1.90625 65 
C 1.296875 64.390625 1.296875 62.296875 1.90625 61.6875 
C 8.90625 61.390625 10.59375 60.890625 10.59375 52.578125 
L 10.59375 12.40625 
C 10.59375 4.09375 8.90625 3.59375 1.90625 3.296875 
C 1.296875 2.6875 1.296875 0.59375 1.90625 0 
C 5.796875 0.09375 11.09375 0.1875 14.90625 0.1875 
C 18.59375 0.1875 22.796875 0 33.09375 0 
C 47.203125 0 65.796875 6.390625 65.796875 31.046875 
C 65.796875 49.671875 50.5 65 31.296875 65 
C 24.203125 65 18.703125 64.796875 14.796875 64.796875 
C 11.203125 64.796875 5.90625 64.890625 1.90625 65 
z
" id="Linux_Libertine_T-68"/>
      </defs>
      <use transform="scale(0.996264)" xlink:href="#Linux_Libertine_T-70"/>
      <use transform="translate(48.318759 0)scale(0.996264)" xlink:href="#Linux_Libertine_T-117"/>
      <use transform="translate(101.220384 0)scale(0.996264)" xlink:href="#Linux_Libertine_T-116"/>
      <use transform="translate(132.702317 0)scale(0.996264)" xlink:href="#Linux_Libertine_T-117"/>
      <use transform="translate(185.603942 0)scale(0.996264)" xlink:href="#Linux_Libertine_T-114"/>
      <use transform="translate(221.86787 0)scale(0.996264)" xlink:href="#Linux_Libertine_T-101"/>
      <use transform="translate(266.400823 0)scale(0.996264)" xlink:href="#Linux_Libertine_T-83"/>
      <use transform="translate(314.719582 0)scale(0.996264)" xlink:href="#Linux_Libertine_T-68"/>
      <use transform="translate(384.55771 0)scale(0.996264)" xlink:href="#Linux_Libertine_T-82"/>
     </g>
    </g>
   </g>
  </g>
 </g>
 <defs>
  <clipPath id="p3ec75e6f89">
   <rect height="118.497254" width="206.62704" x="26.42904" y="1.484928"/>
  </clipPath>
 </defs>
</svg>
